<?xml version="1.0" encoding="UTF-8"?>
<svg width="104" height="104" viewBox="0 0 104 104" fill="none" xmlns="http://www.w3.org/2000/svg">
<path d="M52.0023 102C79.6158 102 102 79.6093 102 51.9977C102 24.3858 79.6153 2 52.0021 2C24.3848 2 2 24.3857 2 51.9977C2 79.6094 24.3845 102 52.0023 102Z" fill="url(#paint0_radial)" stroke="white" stroke-width="4"/>
<path d="M68.9517 51.1175C61.744 51.1175 55.9021 56.9106 55.9021 64.0567C55.9021 71.2035 61.744 76.9978 68.9517 76.9978C76.1581 76.9978 82 71.2035 82 64.0567C82 56.9106 76.1581 51.1175 68.9517 51.1175ZM35.049 51.1182C27.8425 51.1188 22 56.9106 22 64.0573C22 71.2035 27.8425 76.9971 35.049 76.9971C42.256 76.9971 48.0986 71.2035 48.0986 64.0573C48.0986 56.9105 42.256 51.1182 35.0483 51.1182H35.049ZM65.049 34.9427C65.049 42.0889 59.2071 47.8838 52.0007 47.8838C44.793 47.8838 38.9511 42.0889 38.9511 34.9427C38.9511 27.7966 44.793 22.0029 52.0006 22.0029C59.2071 22.0029 65.0484 27.7966 65.0484 34.9427H65.049Z" fill="white"/>
<defs>
<radialGradient id="paint0_radial" cx="0" cy="0" r="1" gradientUnits="userSpaceOnUse" gradientTransform="translate(52.0298 115.613) scale(146.329 135.247)">
<stop stop-color="#FFB900"/>
<stop offset="0.6" stop-color="#F95D8F"/>
<stop offset="0.999" stop-color="#F95353"/>
</radialGradient>
</defs>
</svg>
