<?xml version="1.0" encoding="UTF-8"?>
<svg width="104" height="104" viewBox="0 0 104 104" fill="none" xmlns="http://www.w3.org/2000/svg">
<circle cx="52" cy="52" r="50" fill="#EBECF0" stroke="white" stroke-width="4"/>
<path d="M41.3718 45.4931C41.1192 45.2405 40.7403 44.9882 40.3613 45.1145C39.9824 45.1145 39.7298 45.3671 39.6035 45.746L27.0991 70.6286C26.8465 71.1338 27.0991 71.7653 27.6043 72.1442C27.7306 72.2705 27.9833 72.2706 28.1096 72.2706H45.4136C45.7926 72.2706 46.1715 72.0179 46.4241 71.639C49.9607 64.0606 47.8135 52.3137 41.3718 45.4931Z" fill="#0052CC"/>
<path d="M76.8645 70.5019C76.6119 69.9967 53.4976 23.7683 52.9924 22.6315C52.8661 22.2526 52.4871 22.1263 52.1082 22C51.7293 22 51.3504 22.2526 51.0978 22.6315C44.7824 32.6097 44.1509 44.4826 49.2032 54.7135L57.5394 71.3861C57.6657 71.765 58.0447 72.0176 58.5499 72.0176H75.854C76.4856 72.0176 76.9908 71.5127 76.9908 70.8811C76.9908 70.8811 76.9908 70.7545 76.8645 70.5019Z" fill="#0052CC"/>
</svg>
