<?xml version="1.0" encoding="UTF-8"?>
<svg width="104" height="104" viewBox="0 0 104 104" fill="none" xmlns="http://www.w3.org/2000/svg">
<circle cx="52" cy="52" r="50" fill="#161614" stroke="white" stroke-width="4"/>
<g clip-path="url(#clip0)">
<path d="M51.8836 23C35.3351 23 21.916 36.4167 21.916 52.9675C21.916 66.2082 30.5026 77.4412 42.4097 81.4039C43.9073 81.6812 44.4573 80.7538 44.4573 79.9622C44.4573 79.2477 44.4293 76.8868 44.4166 74.3828C36.0794 76.1956 34.3202 70.847 34.3202 70.847C32.957 67.3831 30.9929 66.4623 30.9929 66.4623C28.2741 64.6022 31.1978 64.6403 31.1978 64.6403C34.2072 64.8518 35.7917 67.7286 35.7917 67.7286C38.4645 72.3101 42.8022 70.9854 44.5123 70.2199C44.7812 68.2828 45.5579 66.961 46.4149 66.2127C39.7588 65.4547 32.7615 62.8851 32.7615 51.4025C32.7615 48.1309 33.9322 45.4574 35.8493 43.3588C35.5381 42.6039 34.5125 39.556 36.1396 35.4282C36.1396 35.4282 38.656 34.6227 44.3828 38.5C46.7731 37.8358 49.3368 37.503 51.8836 37.4917C54.4303 37.503 56.9959 37.8358 59.3909 38.5C65.1108 34.6227 67.6238 35.4282 67.6238 35.4282C69.2549 39.556 68.2287 42.6039 67.9176 43.3588C69.8389 45.4574 71.0016 48.1306 71.0016 51.4025C71.0016 62.9124 63.9911 65.4469 57.3182 66.1887C58.393 67.1187 59.3507 68.9425 59.3507 71.7382C59.3507 75.7479 59.3159 78.9751 59.3159 79.9622C59.3159 80.7596 59.8553 81.6941 61.3745 81.3999C73.2751 77.4328 81.8509 66.2037 81.8509 52.9675C81.8509 36.4167 68.4337 23 51.8836 23Z" fill="white"/>
<path d="M33.1405 65.6895C33.0747 65.8383 32.8402 65.8829 32.627 65.7809C32.4096 65.6832 32.2874 65.4801 32.3579 65.3306C32.4225 65.1774 32.6571 65.1346 32.874 65.2375C33.0919 65.3351 33.216 65.54 33.1405 65.6895ZM34.6146 67.0047C34.4717 67.1373 34.1923 67.0757 34.0026 66.8663C33.8066 66.6574 33.7699 66.3781 33.915 66.2435C34.0623 66.1111 34.3333 66.173 34.5298 66.3821C34.7258 66.5934 34.7639 66.871 34.6144 67.005L34.6146 67.0047ZM35.626 68.6876C35.4422 68.8152 35.1418 68.6955 34.9564 68.429C34.7728 68.1627 34.7728 67.8431 34.9604 67.715C35.1465 67.5869 35.4422 67.7021 35.6302 67.9665C35.8135 68.2375 35.8135 68.5571 35.6257 68.6878L35.626 68.6876ZM37.3361 70.6367C37.1718 70.8176 36.822 70.7692 36.5659 70.522C36.304 70.2804 36.2309 69.9374 36.3957 69.7562C36.5619 69.5748 36.9137 69.6258 37.1718 69.8709C37.4319 70.1121 37.5114 70.4576 37.3363 70.6367H37.3361ZM39.5463 71.2947C39.4741 71.5293 39.1371 71.636 38.7977 71.5364C38.4588 71.4336 38.2369 71.1587 38.3053 70.9215C38.3758 70.6853 38.7143 70.5741 39.0562 70.6808C39.3947 70.7831 39.617 71.056 39.5465 71.2947H39.5463ZM42.062 71.5737C42.0705 71.821 41.7826 72.0259 41.4263 72.0304C41.0679 72.0381 40.7781 71.8381 40.7743 71.5951C40.7743 71.3455 41.0556 71.1424 41.4138 71.1366C41.7701 71.1295 42.062 71.3281 42.062 71.5737ZM44.5332 71.479C44.5759 71.7201 44.3282 71.9679 43.9745 72.0337C43.6266 72.0971 43.3047 71.9484 43.2602 71.7093C43.217 71.4621 43.4694 71.2146 43.8165 71.1504C44.171 71.0889 44.488 71.2339 44.5332 71.479Z" fill="white"/>
</g>
<defs>
<clipPath id="clip0">
<rect width="60.1678" height="58.5312" fill="white" transform="translate(21.916 23)"/>
</clipPath>
</defs>
</svg>
