<?xml version="1.0" encoding="UTF-8"?>
<svg width="104" height="104" viewBox="0 0 104 104" fill="none" xmlns="http://www.w3.org/2000/svg">
<circle cx="52" cy="52" r="50" fill="#EBECF0" stroke="white" stroke-width="4"/>
<g clip-path="url(#clip0)">
<path d="M71.3342 44.9128C71.7962 45.3747 72.3411 45.7419 72.9428 45.9978C74.1985 46.5237 75.6128 46.5237 76.8708 45.9978C78.0837 45.4813 79.0503 44.5171 79.5644 43.3042C80.0904 42.0485 80.0904 40.6342 79.5644 39.3762C79.048 38.1633 78.0837 37.1967 76.8708 36.6826C75.6152 36.1566 74.2008 36.1566 72.9428 36.6826C71.7299 37.199 70.7633 38.1633 70.2492 39.3762C69.7233 40.6318 69.7233 42.0462 70.2492 43.3042C70.5051 43.9035 70.8746 44.4508 71.3342 44.9128ZM69.8559 49.5988V64.8107H72.3908C73.2627 64.806 74.1297 64.7254 74.985 64.5643C75.845 64.4127 76.6741 64.1237 77.4417 63.7067C78.1667 63.3134 78.7921 62.7591 79.273 62.091C79.7776 61.3495 80.0311 60.4658 79.9956 59.5679V49.5988H69.8559ZM61.6399 43.2212C62.3128 43.226 62.9808 43.0909 63.6015 42.8256C64.8145 42.3091 65.7787 41.3449 66.2928 40.132C66.8188 38.8764 66.8188 37.462 66.2905 36.204C65.774 34.9911 64.8098 34.0245 63.5968 33.5104C62.9761 33.245 62.308 33.11 61.6328 33.1147C60.9624 33.11 60.299 33.245 59.6831 33.5104C59.2235 33.707 59.079 33.9629 58.4464 34.2709V42.0651C59.0813 42.3755 59.2235 42.629 59.6831 42.8256C60.3014 43.0933 60.9671 43.226 61.6399 43.2212ZM58.4464 68.8334C59.0813 68.9708 59.3088 69.0774 59.7589 69.139C60.2517 69.2101 60.7492 69.2456 61.2467 69.248C62.0143 69.2432 62.7818 69.1627 63.5328 69.0016C64.2981 68.8476 65.0325 68.5609 65.7006 68.1558C66.3568 67.7531 66.9088 67.2035 67.3163 66.552C67.7664 65.7915 67.9867 64.9149 67.9536 64.0313V46.429H58.4464V68.8334ZM23.583 73.6853L56.5441 79.39V23.61L23.583 29.3147V73.6853Z" fill="#5558AF"/>
<path d="M47.6709 40.7242L32.459 41.6505V45.1591L38.1637 44.9293V61.1978L41.9661 61.4205V44.7801L47.6709 44.5266V40.7242Z" fill="white"/>
</g>
<defs>
<clipPath id="clip0">
<rect width="56.4173" height="55.78" fill="white" transform="translate(23.583 23.61)"/>
</clipPath>
</defs>
</svg>
