<?xml version="1.0" encoding="UTF-8"?>
<svg width="104" height="104" viewBox="0 0 104 104" fill="none" xmlns="http://www.w3.org/2000/svg">
<circle cx="52" cy="52" r="50" fill="#20A0DF" stroke="white" stroke-width="4"/>
<g clip-path="url(#clip0)">
<path d="M45.9621 33.4564C48.2842 31.0562 51.517 29.5675 55.0923 29.5675C59.8452 29.5675 63.9918 32.1967 66.2001 36.0998C68.1191 35.2492 70.2432 34.776 72.478 34.776C81.0502 34.776 88 41.7307 88 50.3092C88 58.8887 81.0502 65.8434 72.478 65.8434C71.4512 65.844 70.427 65.7427 69.4205 65.5411C67.476 68.9823 63.7703 71.3073 59.517 71.3073C57.7364 71.3073 56.0523 70.8994 54.5529 70.1738C52.5816 74.7739 47.9888 77.9994 42.6359 77.9994C37.0616 77.9994 32.3108 74.5002 30.4872 69.5928C29.6903 69.7607 28.8646 69.8482 28.0174 69.8482C21.3805 69.8483 16 64.4556 16 57.8021C16 53.3434 18.4174 49.4504 22.0092 47.3676C21.2698 45.6796 20.8585 43.8166 20.8585 41.8578C20.8585 34.2062 27.12 28.0036 34.8431 28.0036C39.3774 28.0036 43.4072 30.1424 45.9621 33.4564Z" fill="white"/>
<path d="M26.4284 53.9287C26.3833 54.0457 26.4448 54.0702 26.4591 54.0905C26.5945 54.1881 26.732 54.2584 26.8705 54.3367C27.6048 54.7233 28.2982 54.8362 29.0233 54.8362C30.5002 54.8362 31.4171 54.0569 31.4171 52.8023V52.7779C31.4171 51.6179 30.3823 51.1966 29.411 50.8924L29.2849 50.8517C28.5526 50.6156 27.9208 50.4122 27.9208 49.934V49.9086C27.9208 49.4995 28.29 49.1983 28.8623 49.1983C29.4982 49.1983 30.2531 49.4079 30.7392 49.6745C30.7392 49.6745 30.8818 49.7661 30.9341 49.6287C30.9628 49.5554 31.209 48.8981 31.2346 48.8269C31.2623 48.7496 31.2131 48.6926 31.1629 48.662C30.608 48.3273 29.8408 48.0983 29.047 48.0983L28.8993 48.0993C27.5475 48.0993 26.6039 48.9093 26.6039 50.0702V50.0947C26.6039 51.3187 27.6449 51.7155 28.6204 51.9923L28.7773 52.0401C29.488 52.2568 30.1004 52.443 30.1004 52.9396V52.9641C30.1004 53.4179 29.7025 53.7556 29.0604 53.7556C28.8111 53.7556 28.0163 53.7506 27.1578 53.2122C27.0542 53.1522 26.9937 53.1085 26.9137 53.0607C26.8717 53.0342 26.766 52.9884 26.7199 53.1268L26.4284 53.9287ZM48.0498 53.9287C48.0047 54.0457 48.0663 54.0702 48.0806 54.0905C48.216 54.1881 48.3535 54.2584 48.4919 54.3367C49.2262 54.7233 49.9197 54.8362 50.6447 54.8362C52.1216 54.8362 53.0386 54.0569 53.0386 52.8023V52.7779C53.0386 51.6179 52.0037 51.1966 51.0324 50.8924L50.9063 50.8517C50.174 50.6156 49.5421 50.4122 49.5421 49.934V49.9086C49.5421 49.4995 49.9113 49.1983 50.4836 49.1983C51.1195 49.1983 51.8744 49.4079 52.3606 49.6745C52.3606 49.6745 52.5032 49.7661 52.5554 49.6287C52.5841 49.5554 52.8303 48.8981 52.856 48.8269C52.8837 48.7496 52.8344 48.6926 52.7842 48.662C52.2293 48.3273 51.4621 48.0983 50.6683 48.0983L50.5205 48.0993C49.1688 48.0993 48.2252 48.9093 48.2252 50.0702V50.0947C48.2252 51.3187 49.2662 51.7155 50.2416 51.9923L50.3985 52.0401C51.1093 52.2568 51.7227 52.443 51.7227 52.9396V52.9641C51.7227 53.4179 51.3237 53.7556 50.6816 53.7556C50.4325 53.7556 49.6376 53.7506 48.7791 53.2122C48.6755 53.1522 48.614 53.1105 48.5361 53.0607C48.5094 53.0433 48.3843 52.9955 48.3412 53.1268L48.0498 53.9287ZM62.8103 51.4712C62.8103 52.1804 62.6769 52.739 62.4144 53.1338C62.1549 53.5245 61.7621 53.7148 61.2145 53.7148C60.6658 53.7148 60.275 53.5255 60.0196 53.1338C59.7611 52.74 59.6299 52.1804 59.6299 51.4712C59.6299 50.7631 59.7611 50.2054 60.0196 49.8147C60.275 49.4281 60.6658 49.2398 61.2145 49.2398C61.7621 49.2398 62.1549 49.4281 62.4155 49.8147C62.677 50.2054 62.8103 50.763 62.8103 51.4712ZM64.0431 50.1566C63.9221 49.7506 63.7334 49.3924 63.4821 49.0943C63.2308 48.7952 62.9129 48.5551 62.5354 48.38C62.159 48.2061 61.7139 48.1176 61.2145 48.1176C60.7139 48.1176 60.2688 48.2061 59.8924 48.38C59.5149 48.5551 59.197 48.7952 58.9447 49.0943C58.6945 49.3935 58.5057 49.7516 58.3837 50.1566C58.2637 50.5605 58.2031 51.0021 58.2031 51.4712C58.2031 51.9403 58.2637 52.3829 58.3837 52.7858C58.5057 53.1908 58.6934 53.549 58.9458 53.8481C59.197 54.1472 59.516 54.3863 59.8924 54.5562C60.2698 54.7262 60.7139 54.8126 61.2145 54.8126C61.714 54.8126 62.1581 54.7262 62.5355 54.5562C62.9119 54.3863 63.2308 54.1472 63.4822 53.8481C63.7334 53.5499 63.9221 53.1918 64.0432 52.7858C64.1643 52.3819 64.2248 51.9392 64.2248 51.4712C64.2248 51.0032 64.1642 50.5605 64.0431 50.1566ZM74.1669 53.5254C74.1259 53.4064 74.01 53.4511 74.01 53.4511C73.8305 53.5193 73.6397 53.5824 73.4366 53.6139C73.2305 53.6454 73.0038 53.6618 72.7607 53.6618C72.1639 53.6618 71.69 53.4857 71.3505 53.1377C71.01 52.7897 70.8192 52.2271 70.8212 51.466C70.8233 50.7731 70.9915 50.2521 71.2941 49.8553C71.5946 49.4606 72.0521 49.258 72.6623 49.258C73.1711 49.258 73.5587 49.316 73.9648 49.4432C73.9648 49.4432 74.0622 49.4849 74.1084 49.3587C74.216 49.0616 74.296 48.8489 74.4109 48.5223C74.4438 48.4297 74.3638 48.39 74.335 48.3788C74.175 48.3168 73.7976 48.2161 73.5125 48.1733C73.2458 48.1326 72.934 48.1113 72.5874 48.1113C72.0693 48.1113 71.6078 48.1988 71.213 48.3738C70.8191 48.5478 70.4848 48.7879 70.2202 49.0871C69.9556 49.3863 69.7546 49.7443 69.6202 50.1493C69.4869 50.5532 69.4192 50.9969 69.4192 51.466C69.4192 52.4804 69.6951 53.3005 70.2397 53.9009C70.7853 54.5032 71.6049 54.8095 72.6736 54.8095C73.3054 54.8095 73.9536 54.6823 74.4193 54.5002C74.4193 54.5002 74.5085 54.4574 74.4695 54.3547L74.1669 53.5254ZM76.3239 50.7918C76.3824 50.3981 76.4921 50.0704 76.6614 49.815C76.9168 49.4274 77.3065 49.2147 77.8542 49.2147C78.402 49.2147 78.764 49.4284 79.0235 49.815C79.1958 50.0704 79.2707 50.4124 79.3004 50.7918H76.3239ZM80.4747 49.9259C80.3701 49.5341 80.1106 49.1383 79.9404 48.9572C79.6716 48.6703 79.4091 48.4698 79.1486 48.3579C78.808 48.2134 78.3998 48.1178 77.9527 48.1178C77.4317 48.1178 76.9588 48.2043 76.5752 48.3833C76.1907 48.5624 75.8676 48.8067 75.6142 49.1109C75.3608 49.4141 75.1701 49.7753 75.049 50.1853C74.927 50.5934 74.8655 51.0381 74.8655 51.507C74.8655 51.9843 74.9291 52.4289 75.0552 52.8288C75.1825 53.2318 75.3855 53.5868 75.6604 53.8808C75.9342 54.177 76.287 54.409 76.7096 54.5707C77.1291 54.7315 77.6389 54.8149 78.2245 54.8138C79.4297 54.8098 80.0645 54.5432 80.326 54.3997C80.3722 54.3743 80.4163 54.3296 80.3608 54.2014L80.088 53.4433C80.0471 53.3304 79.9311 53.372 79.9311 53.372C79.6326 53.4819 79.2081 53.6793 78.2183 53.6773C77.5711 53.6763 77.0911 53.4871 76.7905 53.1909C76.4818 52.8878 76.3311 52.442 76.3044 51.8133L80.4777 51.8173C80.4777 51.8173 80.5874 51.8153 80.5988 51.7094C80.6029 51.6648 80.7425 50.8589 80.4747 49.9259ZM42.9016 50.7918C42.9611 50.3981 43.0698 50.0704 43.239 49.815C43.4944 49.4274 43.8842 49.2147 44.4318 49.2147C44.9795 49.2147 45.3416 49.4284 45.6021 49.815C45.7733 50.0704 45.8482 50.4124 45.878 50.7918H42.9016ZM47.0513 49.9259C46.9467 49.5341 46.6883 49.1383 46.518 48.9572C46.2493 48.6703 45.9867 48.4698 45.7262 48.3579C45.3857 48.2134 44.9776 48.1178 44.5304 48.1178C44.0104 48.1178 43.5365 48.2043 43.1529 48.3833C42.7683 48.5624 42.4452 48.8067 42.1919 49.1109C41.9386 49.4141 41.7478 49.7753 41.6268 50.1853C41.5058 50.5934 41.4432 51.0381 41.4432 51.507C41.4432 51.9843 41.5068 52.4289 41.633 52.8288C41.7602 53.2318 41.9633 53.5868 42.2381 53.8808C42.512 54.177 42.8648 54.409 43.2873 54.5707C43.7069 54.7315 44.2166 54.8149 44.8022 54.8138C46.0073 54.8098 46.6422 54.5432 46.9038 54.3997C46.95 54.3743 46.994 54.3296 46.9386 54.2014L46.6669 53.4433C46.6248 53.3304 46.5089 53.372 46.5089 53.372C46.2105 53.4819 45.7869 53.6793 44.7951 53.6773C44.1489 53.6763 43.6689 53.4871 43.3684 53.1909C43.0597 52.8878 42.9089 52.442 42.8822 51.8133L47.0555 51.8173C47.0555 51.8173 47.1652 51.8153 47.1765 51.7094C47.1805 51.6648 47.32 50.8589 47.0513 49.9259ZM33.881 53.5027C33.7179 53.3735 33.6953 53.3409 33.64 53.2575C33.5579 53.1303 33.5159 52.9492 33.5159 52.7192C33.5159 52.3549 33.6369 52.0935 33.8882 51.9174C33.8852 51.9185 34.2472 51.6071 35.0984 51.6183C35.6963 51.6264 36.2307 51.7139 36.2307 51.7139V53.5963H36.2317C36.2317 53.5963 35.7015 53.7092 35.1046 53.7448C34.2553 53.7957 33.8779 53.5017 33.881 53.5027ZM35.5415 50.5937C35.3722 50.5815 35.1527 50.5743 34.8901 50.5743C34.5322 50.5743 34.1866 50.6191 33.8625 50.7056C33.5363 50.792 33.243 50.9274 32.9907 51.1064C32.7387 51.2848 32.5317 51.5184 32.3856 51.7892C32.2379 52.0619 32.163 52.3834 32.163 52.7436C32.163 53.1099 32.2266 53.4284 32.3538 53.6889C32.481 53.9504 32.6646 54.1681 32.8984 54.3361C33.1301 54.504 33.4163 54.627 33.7486 54.7013C34.0758 54.7756 34.447 54.8132 34.8532 54.8132C35.2809 54.8132 35.7076 54.7787 36.1209 54.7084C36.5301 54.6392 37.0327 54.5384 37.1722 54.507C37.2699 54.4836 37.3674 54.4588 37.4645 54.4327C37.5681 54.4073 37.5599 54.2973 37.5599 54.2973L37.5578 50.5112C37.5578 49.6809 37.3342 49.0653 36.8942 48.6838C36.4563 48.3032 35.8111 48.1108 34.9773 48.1108C34.6645 48.1108 34.1609 48.1537 33.8594 48.2137C33.8594 48.2137 32.9476 48.3887 32.5722 48.6797C32.5722 48.6797 32.4901 48.7306 32.5353 48.8446L32.8307 49.6322C32.8676 49.7339 32.9671 49.6993 32.9671 49.6993C32.9671 49.6993 32.9989 49.6871 33.0359 49.6657C33.839 49.2322 34.8543 49.2455 34.8543 49.2455C35.3056 49.2455 35.6523 49.335 35.8861 49.513C36.1138 49.686 36.2297 49.9475 36.2297 50.4989V50.674C35.8707 50.6231 35.5415 50.5937 35.5415 50.5937ZM69.2012 48.4604C69.2329 48.3667 69.1663 48.322 69.1386 48.3118C69.0679 48.2844 68.713 48.2101 68.4391 48.1928C67.9151 48.1612 67.6238 48.2488 67.3632 48.3647C67.1048 48.4807 66.8176 48.6679 66.6576 48.8806V48.377C66.6576 48.3068 66.6073 48.2508 66.5376 48.2508H65.4678C65.3981 48.2508 65.3479 48.3067 65.3479 48.377V54.5521C65.3479 54.6214 65.4053 54.6783 65.475 54.6783H66.5714C66.605 54.6782 66.6371 54.6648 66.6608 54.6411C66.6844 54.6175 66.6977 54.5855 66.6976 54.5521V51.4671C66.6976 51.053 66.7438 50.6399 66.8361 50.3805C66.9263 50.124 67.0494 49.9185 67.2012 49.7709C67.354 49.6244 67.5273 49.5217 67.7171 49.4637C67.9109 49.4046 68.1252 49.3853 68.2771 49.3853C68.4955 49.3853 68.7355 49.4412 68.7355 49.4412C68.8155 49.4504 68.8607 49.4016 68.8872 49.3293C68.9591 49.1401 69.1622 48.5733 69.2012 48.4604Z" fill="#20A0DF"/>
<path d="M58.9102 45.5985C58.7768 45.5578 58.6558 45.5303 58.4978 45.5008C58.3378 45.4724 58.1471 45.4581 57.9307 45.4581C57.1757 45.4581 56.5809 45.6697 56.1635 46.0868C55.7481 46.502 55.466 47.1339 55.3244 47.9652L55.2731 48.245H54.3255C54.3255 48.245 54.2106 48.2409 54.186 48.3651L54.0312 49.2269C54.0199 49.3083 54.0558 49.3602 54.1665 49.3602H55.0886L54.1532 54.5413C54.0803 54.9585 53.9962 55.3014 53.9029 55.5618C53.8116 55.8183 53.7224 56.0105 53.6116 56.151C53.505 56.2853 53.4044 56.385 53.23 56.443C53.0864 56.4908 52.9203 56.5132 52.7388 56.5132C52.6382 56.5132 52.504 56.4968 52.4044 56.4765C52.306 56.4571 52.2537 56.4358 52.1788 56.4042C52.1788 56.4042 52.0711 56.3636 52.028 56.4704C51.9941 56.559 51.748 57.2294 51.7182 57.3119C51.6895 57.3943 51.7306 57.4584 51.7828 57.4777C51.9059 57.5205 51.9972 57.5489 52.1644 57.5886C52.3962 57.6426 52.592 57.6456 52.7756 57.6456C53.1592 57.6456 53.5099 57.5917 53.8002 57.488C54.0916 57.3831 54.3458 57.201 54.5715 56.9548C54.8146 56.6882 54.9674 56.4094 55.1131 56.0278C55.2577 55.6513 55.3819 55.1833 55.4802 54.638L56.4208 49.3602H57.7951C57.7951 49.3602 57.911 49.3643 57.9347 49.2391L58.0905 48.3783C58.1008 48.296 58.0659 48.2451 57.9541 48.2451H56.6197C56.6269 48.2156 56.6874 47.7495 56.8402 47.3111C56.9059 47.1249 57.0289 46.9732 57.1326 46.8694C57.2352 46.7677 57.3531 46.6954 57.4824 46.6537C57.6147 46.6109 57.7655 46.5906 57.9306 46.5906C58.0557 46.5906 58.1798 46.6049 58.2731 46.6242C58.4023 46.6517 58.4526 46.6659 58.4865 46.6761C58.6229 46.7168 58.6413 46.6771 58.6681 46.6121L58.9871 45.7431C59.0199 45.6493 58.9388 45.6096 58.9102 45.5985ZM40.2666 54.5525C40.2666 54.6217 40.2163 54.6777 40.1466 54.6777H39.0399C38.9701 54.6777 38.9209 54.6217 38.9209 54.5525V45.7165C38.9209 45.6474 38.9701 45.5914 39.0399 45.5914H40.1466C40.2163 45.5914 40.2666 45.6474 40.2666 45.7165V54.5525Z" fill="#20A0DF"/>
</g>
<defs>
<clipPath id="clip0">
<rect width="72" height="50" fill="white" transform="translate(16 28)"/>
</clipPath>
</defs>
</svg>
