<?xml version="1.0" encoding="UTF-8"?>
<svg width="104" height="104" viewBox="0 0 104 104" fill="none" xmlns="http://www.w3.org/2000/svg">
<circle cx="52" cy="52" r="50" fill="#531755" stroke="white" stroke-width="4"/>
<path fill-rule="evenodd" clip-rule="evenodd" d="M43.9988 22C40.682 22.0024 37.9978 24.6887 38.0002 27.9988C37.9978 31.3089 40.6845 33.9951 44.0012 33.9975H50.0022V28.0012C50.0046 24.6911 47.3179 22.0049 43.9988 22C44.0012 22 44.0012 22 43.9988 22V22ZM43.9988 38H28.0011C24.6844 38.0024 21.9977 40.6887 22.0001 43.9988C21.9952 47.3089 24.6819 49.9951 27.9986 50H43.9988C47.3155 49.9975 50.0022 47.3113 49.9997 44.0012C50.0022 40.6887 47.3155 38.0024 43.9988 38Z" fill="#36C5F0"/>
<path fill-rule="evenodd" clip-rule="evenodd" d="M82 43.9988C82.0024 40.6887 79.3157 38.0024 75.999 38C72.6823 38.0024 69.9956 40.6887 69.998 43.9988V50H75.999C79.3157 49.9975 82.0024 47.3113 82 43.9988ZM65.9998 43.9988V27.9988C66.0023 24.6911 63.318 22.0049 60.0013 22C56.6846 22.0024 53.9979 24.6887 54.0004 27.9988V43.9988C53.9955 47.3089 56.6822 49.9951 59.9989 50C63.3156 49.9975 66.0023 47.3113 65.9998 43.9988Z" fill="#2EB67D"/>
<path fill-rule="evenodd" clip-rule="evenodd" d="M59.9985 82C63.3152 81.9975 66.0019 79.3113 65.9995 76.0012C66.0019 72.6911 63.3152 70.0049 59.9985 70.0024H53.9976V76.0012C53.9951 79.3089 56.6818 81.9951 59.9985 82ZM59.9985 65.9975H75.9986C79.3153 65.9951 82.0021 63.3089 81.9996 59.9988C82.0045 56.6887 79.3178 54.0025 76.0011 53.9976H60.001C56.6843 54 53.9976 56.6862 54 59.9963C53.9976 63.3089 56.6818 65.9951 59.9985 65.9975Z" fill="#ECB22E"/>
<path fill-rule="evenodd" clip-rule="evenodd" d="M22 59.9983C21.9976 63.3084 24.6843 65.9946 28.001 65.9971C31.3177 65.9946 34.0044 63.3084 34.0019 59.9983V53.9995H28.001C24.6843 54.002 21.9976 56.6882 22 59.9983ZM38.0001 59.9983V75.9983C37.9952 79.3084 40.6819 81.9946 43.9986 81.9995C47.3153 81.997 50.002 79.3108 49.9996 76.0007V60.0032C50.0045 56.6931 47.3178 54.0069 44.0011 54.002C40.6819 54.002 37.9977 56.6882 38.0001 59.9983C38.0001 59.9983 38.0001 60.0007 38.0001 59.9983Z" fill="#E01E5A"/>
</svg>
