<svg width="120" height="120" viewBox="0 0 120 120" fill="none" xmlns="http://www.w3.org/2000/svg">
<rect x="0.5" y="0.5" width="119" height="119" rx="7.5" fill="white" stroke="#D8D8D9"/>
<path fill-rule="evenodd" clip-rule="evenodd" d="M25.5636 16.5508H23.6326C21.777 16.5508 20.5789 16.5533 19.667 16.6278C18.7927 16.6992 18.4685 16.8205 18.3094 16.9016C17.7038 17.2101 17.2115 17.7025 16.9029 18.3081C16.8218 18.4672 16.7006 18.7913 16.6291 19.6657C16.5546 20.5776 16.5521 21.7757 16.5521 23.6313V25.5623C16.5521 27.4179 16.5546 28.616 16.6291 29.5279C16.7006 30.4022 16.8218 30.7263 16.9029 30.8855C17.2115 31.4911 17.7038 31.9834 18.3094 32.292C18.4685 32.373 18.7927 32.4943 19.667 32.5657C20.5789 32.6402 21.777 32.6427 23.6326 32.6427H32.6441V23.6313C32.6441 21.7757 32.6416 20.5776 32.5671 19.6657C32.4956 18.7913 32.3744 18.4672 32.2933 18.3081C31.9847 17.7025 31.4924 17.2101 30.8868 16.9016C30.7277 16.8205 30.4035 16.6992 29.5292 16.6278C28.6173 16.5533 27.4192 16.5508 25.5636 16.5508ZM14.0353 16.8469C13.3337 18.2238 13.3337 20.0263 13.3337 23.6313V25.5623C13.3337 29.1672 13.3337 30.9697 14.0353 32.3466C14.6524 33.5578 15.6371 34.5425 16.8483 35.1596C18.2252 35.8611 20.0277 35.8611 23.6326 35.8611H34.146C34.7468 35.8611 35.0472 35.8611 35.2767 35.7442C35.4786 35.6414 35.6427 35.4772 35.7456 35.2754C35.8625 35.0459 35.8625 34.7455 35.8625 34.1447V23.6313C35.8625 20.0263 35.8625 18.2238 35.1609 16.8469C34.5438 15.6358 33.5591 14.6511 32.3479 14.034C30.971 13.3324 29.1686 13.3324 25.5636 13.3324H23.6326C20.0277 13.3324 18.2252 13.3324 16.8483 14.034C15.6371 14.6511 14.6524 15.6358 14.0353 16.8469Z" fill="#646F79"/>
<path d="M19.7708 22.131C19.7708 21.304 19.7708 20.8906 19.9317 20.5747C20.0732 20.2969 20.2991 20.071 20.5769 19.9295C20.8928 19.7686 21.3062 19.7686 22.1332 19.7686H27.0635C27.8904 19.7686 28.3039 19.7686 28.6197 19.9295C28.8976 20.071 29.1234 20.2969 29.265 20.5747C29.4259 20.8906 29.4259 21.304 29.4259 22.131V29.4237H22.1332C21.3062 29.4237 20.8928 29.4237 20.5769 29.2628C20.2991 29.1212 20.0732 28.8954 19.9317 28.6175C19.7708 28.3017 19.7708 27.8882 19.7708 27.0613V22.131Z" fill="#17191B"/>
<path fill-rule="evenodd" clip-rule="evenodd" d="M32.6441 87.3558H23.6326C21.777 87.3558 20.5789 87.3583 19.667 87.4329C18.7927 87.5043 18.4685 87.6255 18.3094 87.7066C17.7038 88.0152 17.2115 88.5075 16.9029 89.1131C16.8218 89.2722 16.7006 89.5964 16.6291 90.4707C16.5546 91.3826 16.5521 92.5807 16.5521 94.4363V96.3673C16.5521 98.2229 16.5546 99.421 16.6291 100.333C16.7006 101.207 16.8218 101.531 16.9029 101.691C17.2115 102.296 17.7038 102.788 18.3094 103.097C18.4685 103.178 18.7927 103.299 19.667 103.371C20.5789 103.445 21.777 103.448 23.6326 103.448H25.5636C27.4192 103.448 28.6173 103.445 29.5292 103.371C30.4035 103.299 30.7277 103.178 30.8868 103.097C31.4924 102.788 31.9847 102.296 32.2933 101.691C32.3744 101.531 32.4956 101.207 32.5671 100.333C32.6416 99.421 32.6441 98.2229 32.6441 96.3673V87.3558ZM14.0353 87.652C13.3337 89.0289 13.3337 90.8314 13.3337 94.4363V96.3673C13.3337 99.9723 13.3337 101.775 14.0353 103.152C14.6524 104.363 15.6371 105.348 16.8483 105.965C18.2252 106.666 20.0277 106.666 23.6326 106.666H25.5636C29.1686 106.666 30.971 106.666 32.3479 105.965C33.5591 105.348 34.5438 104.363 35.1609 103.152C35.8625 101.775 35.8625 99.9723 35.8625 96.3673V85.8539C35.8625 85.2531 35.8625 84.9527 35.7456 84.7232C35.6427 84.5213 35.4786 84.3572 35.2767 84.2544C35.0472 84.1375 34.7468 84.1375 34.146 84.1375H23.6326C20.0277 84.1375 18.2252 84.1375 16.8483 84.839C15.6371 85.4561 14.6524 86.4408 14.0353 87.652Z" fill="#646F79"/>
<path d="M19.7708 92.936C19.7708 92.1091 19.7708 91.6956 19.9317 91.3798C20.0732 91.102 20.2991 90.8761 20.5769 90.7345C20.8928 90.5736 21.3062 90.5736 22.1332 90.5736H29.4259V97.8664C29.4259 98.6933 29.4259 99.1068 29.265 99.4226C29.1234 99.7004 28.8976 99.9263 28.6197 100.068C28.3039 100.229 27.8904 100.229 27.0635 100.229H22.1332C21.3062 100.229 20.8928 100.229 20.5769 100.068C20.2991 99.9263 20.0732 99.7004 19.9317 99.4226C19.7708 99.1068 19.7708 98.6933 19.7708 97.8664V92.936Z" fill="#17191B"/>
<path fill-rule="evenodd" clip-rule="evenodd" d="M96.3678 16.5508H94.4368C92.5812 16.5508 91.3831 16.5533 90.4712 16.6278C89.5969 16.6992 89.2727 16.8205 89.1136 16.9016C88.508 17.2101 88.0157 17.7025 87.7071 18.3081C87.626 18.4672 87.5048 18.7913 87.4333 19.6657C87.3588 20.5776 87.3563 21.7757 87.3563 23.6313V32.6427H96.3678C98.2234 32.6427 99.4215 32.6402 100.333 32.5657C101.208 32.4943 101.532 32.373 101.691 32.292C102.297 31.9834 102.789 31.4911 103.098 30.8855C103.179 30.7263 103.3 30.4022 103.371 29.5279C103.446 28.616 103.448 27.4179 103.448 25.5623V23.6313C103.448 21.7757 103.446 20.5776 103.371 19.6657C103.3 18.7913 103.179 18.4672 103.098 18.3081C102.789 17.7025 102.297 17.2101 101.691 16.9016C101.532 16.8205 101.208 16.6992 100.333 16.6278C99.4215 16.5533 98.2234 16.5508 96.3678 16.5508ZM84.8395 16.8469C84.1379 18.2238 84.1379 20.0263 84.1379 23.6313V34.1447C84.1379 34.7455 84.1379 35.0459 84.2549 35.2754C84.3577 35.4772 84.5218 35.6414 84.7237 35.7442C84.9532 35.8611 85.2536 35.8611 85.8544 35.8611H96.3678C99.9728 35.8611 101.775 35.8611 103.152 35.1596C104.363 34.5425 105.348 33.5578 105.965 32.3466C106.667 30.9697 106.667 29.1672 106.667 25.5623V23.6313C106.667 20.0263 106.667 18.2238 105.965 16.8469C105.348 15.6358 104.363 14.6511 103.152 14.034C101.775 13.3324 99.9728 13.3324 96.3678 13.3324H94.4368C90.8319 13.3324 89.0294 13.3324 87.6525 14.034C86.4413 14.6511 85.4566 15.6358 84.8395 16.8469Z" fill="#646F79"/>
<path d="M90.575 22.131C90.575 21.304 90.575 20.8906 90.7359 20.5747C90.8774 20.2969 91.1033 20.071 91.3811 19.9295C91.697 19.7686 92.1104 19.7686 92.9374 19.7686H97.8677C98.6946 19.7686 99.1081 19.7686 99.4239 19.9295C99.7018 20.071 99.9276 20.2969 100.069 20.5747C100.23 20.8906 100.23 21.304 100.23 22.131V27.0613C100.23 27.8882 100.23 28.3017 100.069 28.6175C99.9276 28.8954 99.7018 29.1212 99.4239 29.2628C99.1081 29.4237 98.6946 29.4237 97.8677 29.4237H90.575V22.131Z" fill="#17191B"/>
<rect x="45.5181" y="13.3324" width="3.21839" height="3.21839" rx="1.6092" fill="#17191B"/>
<rect x="55.1738" y="13.3324" width="3.21839" height="3.21839" rx="1.6092" fill="#17191B"/>
<rect x="68.0469" y="13.3324" width="3.21839" height="3.21839" rx="1.6092" fill="#17191B"/>
<rect x="68.0469" y="16.5513" width="3.21839" height="3.21839" rx="1.6092" fill="#17191B"/>
<rect x="39.0813" y="16.5513" width="3.21839" height="3.21839" rx="1.6092" fill="#17191B"/>
<rect x="48.7356" y="13.3324" width="3.21839" height="3.21839" rx="1.6092" fill="#17191B"/>
<rect x="58.3911" y="13.3324" width="3.21839" height="3.21839" rx="1.6092" fill="#17191B"/>
<rect x="71.2656" y="13.3324" width="3.21839" height="3.21839" rx="1.6092" fill="#17191B"/>
<rect x="71.2656" y="16.5513" width="3.21839" height="3.21839" rx="1.6092" fill="#17191B"/>
<rect x="71.2656" y="22.9873" width="3.21839" height="3.21839" rx="1.6092" fill="#17191B"/>
<rect x="68.0469" y="26.2062" width="3.21839" height="3.21839" rx="1.6092" fill="#17191B"/>
<rect x="74.4829" y="26.2062" width="3.21839" height="3.21839" rx="1.6092" fill="#17191B"/>
<rect x="77.7026" y="26.2062" width="3.21839" height="3.21839" rx="1.6092" fill="#17191B"/>
<rect x="71.2656" y="32.6438" width="3.21839" height="3.21839" rx="1.6092" fill="#17191B"/>
<rect x="64.8274" y="29.4235" width="3.21839" height="3.21839" rx="1.6092" fill="#17191B"/>
<rect x="64.8274" y="35.8611" width="3.21839" height="3.21839" rx="1.6092" fill="#17191B"/>
<rect x="51.9551" y="29.4235" width="3.21839" height="3.21839" rx="1.6092" fill="#17191B"/>
<rect x="45.5181" y="29.4235" width="3.21839" height="3.21839" rx="1.6092" fill="#17191B"/>
<rect x="64.8274" y="39.0785" width="3.21839" height="3.21839" rx="1.6092" fill="#17191B"/>
<rect x="51.9551" y="32.6438" width="3.21839" height="3.21839" rx="1.6092" fill="#17191B"/>
<rect x="45.5181" y="32.6438" width="3.21839" height="3.21839" rx="1.6092" fill="#17191B"/>
<rect x="64.8274" y="42.2987" width="3.21839" height="3.21839" rx="1.6092" fill="#17191B"/>
<rect x="51.9551" y="35.8611" width="3.21839" height="3.21839" rx="1.6092" fill="#17191B"/>
<rect x="51.9551" y="42.2987" width="3.21839" height="3.21839" rx="1.6092" fill="#17191B"/>
<rect x="51.9551" y="45.5161" width="3.21839" height="3.21839" rx="1.6092" fill="#17191B"/>
<rect x="48.7356" y="45.5161" width="3.21839" height="3.21839" rx="1.6092" fill="#17191B"/>
<rect x="48.7356" y="48.7334" width="3.21839" height="3.21839" rx="1.6092" fill="#17191B"/>
<rect x="48.7356" y="51.9537" width="3.21839" height="3.21839" rx="1.6092" fill="#17191B"/>
<rect x="48.7356" y="55.171" width="3.21839" height="3.21839" rx="1.6092" fill="#17191B"/>
<rect x="35.8625" y="55.171" width="3.21839" height="3.21839" rx="1.6092" fill="#17191B"/>
<rect x="35.8625" y="61.6086" width="3.21839" height="3.21839" rx="1.6092" fill="#17191B"/>
<rect x="51.9551" y="51.9537" width="3.21839" height="3.21839" rx="1.6092" fill="#17191B"/>
<rect x="51.9551" y="55.171" width="3.21839" height="3.21839" rx="1.6092" fill="#17191B"/>
<rect x="39.0813" y="55.171" width="3.21839" height="3.21839" rx="1.6092" fill="#17191B"/>
<rect x="42.2986" y="61.6086" width="3.21839" height="3.21839" rx="1.6092" fill="#17191B"/>
<rect x="45.5181" y="58.3899" width="3.21839" height="3.21839" rx="1.6092" fill="#17191B"/>
<rect x="51.9551" y="61.6086" width="3.21839" height="3.21839" rx="1.6092" fill="#17191B"/>
<rect x="58.3911" y="58.3899" width="3.21839" height="3.21839" rx="1.6092" fill="#17191B"/>
<rect x="45.5181" y="64.8259" width="3.21839" height="3.21839" rx="1.6092" fill="#17191B"/>
<rect x="51.9551" y="68.0448" width="3.21839" height="3.21839" rx="1.6092" fill="#17191B"/>
<rect x="58.3911" y="64.8259" width="3.21839" height="3.21839" rx="1.6092" fill="#17191B"/>
<rect x="45.5181" y="61.6086" width="3.21839" height="3.21839" rx="1.6092" fill="#17191B"/>
<rect x="51.9551" y="64.8259" width="3.21839" height="3.21839" rx="1.6092" fill="#17191B"/>
<rect x="58.3911" y="61.6086" width="3.21839" height="3.21839" rx="1.6092" fill="#17191B"/>
<rect x="71.2656" y="61.6086" width="3.21839" height="3.21839" rx="1.6092" fill="#17191B"/>
<rect x="68.0469" y="58.3899" width="3.21839" height="3.21839" rx="1.6092" fill="#17191B"/>
<rect x="64.8274" y="51.9537" width="3.21839" height="3.21839" rx="1.6092" fill="#17191B"/>
<rect x="64.8274" y="48.7334" width="3.21839" height="3.21839" rx="1.6092" fill="#17191B"/>
<rect x="74.4829" y="61.6086" width="3.21839" height="3.21839" rx="1.6092" fill="#17191B"/>
<rect x="71.2656" y="58.3899" width="3.21839" height="3.21839" rx="1.6092" fill="#17191B"/>
<rect x="68.0469" y="51.9537" width="3.21839" height="3.21839" rx="1.6092" fill="#17191B"/>
<rect x="68.0469" y="48.7334" width="3.21839" height="3.21839" rx="1.6092" fill="#17191B"/>
<rect x="68.0469" y="45.5161" width="3.21839" height="3.21839" rx="1.6092" fill="#17191B"/>
<rect x="74.4829" y="48.7334" width="3.21839" height="3.21839" rx="1.6092" fill="#17191B"/>
<rect x="77.7026" y="45.5161" width="3.21839" height="3.21839" rx="1.6092" fill="#17191B"/>
<rect x="84.1387" y="45.5161" width="3.21839" height="3.21839" rx="1.6092" fill="#17191B"/>
<rect x="84.1387" y="51.9537" width="3.21839" height="3.21839" rx="1.6092" fill="#17191B"/>
<rect x="80.9199" y="55.171" width="3.21839" height="3.21839" rx="1.6092" fill="#17191B"/>
<rect x="87.3574" y="51.9537" width="3.21839" height="3.21839" rx="1.6092" fill="#17191B"/>
<rect x="84.1387" y="55.171" width="3.21839" height="3.21839" rx="1.6092" fill="#17191B"/>
<rect x="80.9199" y="51.9537" width="3.21839" height="3.21839" rx="1.6092" fill="#17191B"/>
<rect x="77.7026" y="55.171" width="3.21839" height="3.21839" rx="1.6092" fill="#17191B"/>
<rect x="77.7026" y="42.2987" width="3.21839" height="3.21839" rx="1.6092" fill="#17191B"/>
<rect x="84.1387" y="42.2987" width="3.21839" height="3.21839" rx="1.6092" fill="#17191B"/>
<rect x="84.1387" y="48.7334" width="3.21839" height="3.21839" rx="1.6092" fill="#17191B"/>
<rect x="100.23" y="45.5161" width="3.21839" height="3.21839" rx="1.6092" fill="#17191B"/>
<rect x="103.449" y="51.9537" width="3.21839" height="3.21839" rx="1.6092" fill="#17191B"/>
<rect x="100.23" y="58.3899" width="3.21839" height="3.21839" rx="1.6092" fill="#17191B"/>
<rect x="103.449" y="64.8259" width="3.21839" height="3.21839" rx="1.6092" fill="#17191B"/>
<rect x="87.3574" y="48.7334" width="3.21839" height="3.21839" rx="1.6092" fill="#17191B"/>
<rect x="103.449" y="45.5161" width="3.21839" height="3.21839" rx="1.6092" fill="#17191B"/>
<rect x="100.23" y="51.9537" width="3.21839" height="3.21839" rx="1.6092" fill="#17191B"/>
<rect x="103.449" y="58.3899" width="3.21839" height="3.21839" rx="1.6092" fill="#17191B"/>
<rect x="100.23" y="64.8259" width="3.21839" height="3.21839" rx="1.6092" fill="#17191B"/>
<rect x="97.0117" y="68.0448" width="3.21839" height="3.21839" rx="1.6092" fill="#17191B"/>
<rect x="103.449" y="71.2635" width="3.21839" height="3.21839" rx="1.6092" fill="#17191B"/>
<rect x="100.23" y="74.481" width="3.21839" height="3.21839" rx="1.6092" fill="#17191B"/>
<rect x="93.793" y="68.0448" width="3.21839" height="3.21839" rx="1.6092" fill="#17191B"/>
<rect x="93.793" y="61.6086" width="3.21839" height="3.21839" rx="1.6092" fill="#17191B"/>
<rect x="87.3574" y="61.6086" width="3.21839" height="3.21839" rx="1.6092" fill="#17191B"/>
<rect x="84.1387" y="64.8259" width="3.21839" height="3.21839" rx="1.6092" fill="#17191B"/>
<rect x="80.9199" y="64.8259" width="3.21839" height="3.21839" rx="1.6092" fill="#17191B"/>
<rect x="77.7026" y="64.8259" width="3.21839" height="3.21839" rx="1.6092" fill="#17191B"/>
<rect x="84.1387" y="71.2635" width="3.21839" height="3.21839" rx="1.6092" fill="#17191B"/>
<rect x="84.1387" y="77.6997" width="3.21839" height="3.21839" rx="1.6092" fill="#17191B"/>
<rect x="97.0117" y="80.9186" width="3.21839" height="3.21839" rx="1.6092" fill="#17191B"/>
<rect x="84.1387" y="90.5735" width="3.21839" height="3.21839" rx="1.6092" fill="#17191B"/>
<rect x="74.4829" y="77.6997" width="3.21839" height="3.21839" rx="1.6092" fill="#17191B"/>
<rect x="64.8274" y="74.481" width="3.21839" height="3.21839" rx="1.6092" fill="#17191B"/>
<rect x="68.0469" y="80.9186" width="3.21839" height="3.21839" rx="1.6092" fill="#17191B"/>
<rect x="68.0469" y="84.1373" width="3.21839" height="3.21839" rx="1.6092" fill="#17191B"/>
<rect x="68.0469" y="103.447" width="3.21839" height="3.21839" rx="1.6092" fill="#17191B"/>
<rect x="64.8274" y="77.6997" width="3.21839" height="3.21839" rx="1.6092" fill="#17191B"/>
<rect x="61.6101" y="74.481" width="3.21839" height="3.21839" rx="1.6092" fill="#17191B"/>
<rect x="64.8274" y="80.9186" width="3.21839" height="3.21839" rx="1.6092" fill="#17191B"/>
<rect x="55.1738" y="80.9186" width="3.21839" height="3.21839" rx="1.6092" fill="#17191B"/>
<rect x="51.9551" y="84.1373" width="3.21839" height="3.21839" rx="1.6092" fill="#17191B"/>
<rect x="61.6101" y="77.6997" width="3.21839" height="3.21839" rx="1.6092" fill="#17191B"/>
<rect x="61.6101" y="64.8259" width="3.21839" height="3.21839" rx="1.6092" fill="#17191B"/>
<rect x="61.6101" y="68.0448" width="3.21839" height="3.21839" rx="1.6092" fill="#17191B"/>
<rect x="64.8274" y="71.2635" width="3.21839" height="3.21839" rx="1.6092" fill="#17191B"/>
<rect x="87.3574" y="71.2635" width="3.21839" height="3.21839" rx="1.6092" fill="#17191B"/>
<rect x="87.3574" y="77.6997" width="3.21839" height="3.21839" rx="1.6092" fill="#17191B"/>
<rect x="100.23" y="80.9186" width="3.21839" height="3.21839" rx="1.6092" fill="#17191B"/>
<rect x="87.3574" y="90.5735" width="3.21839" height="3.21839" rx="1.6092" fill="#17191B"/>
<rect x="77.7026" y="77.6997" width="3.21839" height="3.21839" rx="1.6092" fill="#17191B"/>
<rect x="77.7026" y="80.9186" width="3.21839" height="3.21839" rx="1.6092" fill="#17191B"/>
<rect x="77.7026" y="90.5735" width="3.21839" height="3.21839" rx="1.6092" fill="#17191B"/>
<rect x="77.7026" y="84.1373" width="3.21839" height="3.21839" rx="1.6092" fill="#17191B"/>
<rect x="77.7026" y="93.7924" width="3.21839" height="3.21839" rx="1.6092" fill="#17191B"/>
<rect x="77.7026" y="103.447" width="3.21839" height="3.21839" rx="1.6092" fill="#17191B"/>
<rect x="84.1387" y="103.447" width="3.21839" height="3.21839" rx="1.6092" fill="#17191B"/>
<rect x="77.7026" y="87.3547" width="3.21839" height="3.21839" rx="1.6092" fill="#17191B"/>
<rect x="77.7026" y="97.0111" width="3.21839" height="3.21839" rx="1.6092" fill="#17191B"/>
<rect x="77.7026" y="100.229" width="3.21839" height="3.21839" rx="1.6092" fill="#17191B"/>
<rect x="68.0469" y="87.3547" width="3.21839" height="3.21839" rx="1.6092" fill="#17191B"/>
<rect x="61.6101" y="87.3547" width="3.21839" height="3.21839" rx="1.6092" fill="#17191B"/>
<rect x="68.0469" y="74.481" width="3.21839" height="3.21839" rx="1.6092" fill="#17191B"/>
<rect x="71.2656" y="80.9186" width="3.21839" height="3.21839" rx="1.6092" fill="#17191B"/>
<rect x="71.2656" y="84.1376" width="3.21839" height="3.21839" rx="1.6092" fill="#17191B"/>
<rect x="71.2656" y="103.447" width="3.21839" height="3.21839" rx="1.6092" fill="#17191B"/>
<rect x="64.8274" y="64.8259" width="3.21839" height="3.21839" rx="1.6092" fill="#17191B"/>
<rect x="64.8274" y="68.0448" width="3.21839" height="3.21839" rx="1.6092" fill="#17191B"/>
<rect x="68.0469" y="71.2635" width="3.21839" height="3.21839" rx="1.6092" fill="#17191B"/>
<rect x="90.575" y="71.2635" width="3.21839" height="3.21839" rx="1.6092" fill="#17191B"/>
<rect x="90.575" y="77.6997" width="3.21839" height="3.21839" rx="1.6092" fill="#17191B"/>
<rect x="103.449" y="80.9186" width="3.21839" height="3.21839" rx="1.6092" fill="#17191B"/>
<rect x="90.575" y="84.1373" width="3.21839" height="3.21839" rx="1.6092" fill="#17191B"/>
<rect x="90.575" y="93.7924" width="3.21839" height="3.21839" rx="1.6092" fill="#17191B"/>
<rect x="84.1387" y="84.1373" width="3.21839" height="3.21839" rx="1.6092" fill="#17191B"/>
<rect x="93.793" y="84.1373" width="3.21839" height="3.21839" rx="1.6092" fill="#17191B"/>
<rect x="100.23" y="84.1376" width="3.21839" height="3.21839" rx="1.6092" fill="#17191B"/>
<rect x="103.449" y="84.1376" width="3.21839" height="3.21839" rx="1.6092" fill="#17191B"/>
<rect x="103.449" y="90.5735" width="3.21839" height="3.21839" rx="1.6092" fill="#17191B"/>
<rect x="100.23" y="90.5735" width="3.21839" height="3.21839" rx="1.6092" fill="#17191B"/>
<rect x="90.575" y="80.9186" width="3.21839" height="3.21839" rx="1.6092" fill="#17191B"/>
<rect x="90.575" y="87.3547" width="3.21839" height="3.21839" rx="1.6092" fill="#17191B"/>
<rect x="90.575" y="97.0111" width="3.21839" height="3.21839" rx="1.6092" fill="#17191B"/>
<rect x="93.793" y="97.0111" width="3.21839" height="3.21839" rx="1.6092" fill="#17191B"/>
<rect x="100.23" y="100.229" width="3.21839" height="3.21839" rx="1.6092" fill="#17191B"/>
<rect x="100.23" y="103.447" width="3.21839" height="3.21839" rx="1.6092" fill="#17191B"/>
<rect x="93.793" y="103.447" width="3.21839" height="3.21839" rx="1.6092" fill="#17191B"/>
<rect x="103.449" y="103.447" width="3.21839" height="3.21839" rx="1.6092" fill="#17191B"/>
<rect x="103.449" y="97.0111" width="3.21839" height="3.21839" rx="1.6092" fill="#17191B"/>
<rect x="87.3574" y="97.0111" width="3.21839" height="3.21839" rx="1.6092" fill="#17191B"/>
<rect x="97.0117" y="93.7924" width="3.21839" height="3.21839" rx="1.6092" fill="#17191B"/>
<rect x="93.793" y="87.3547" width="3.21839" height="3.21839" rx="1.6092" fill="#17191B"/>
<rect x="100.23" y="87.3547" width="3.21839" height="3.21839" rx="1.6092" fill="#17191B"/>
<rect x="103.449" y="87.3547" width="3.21839" height="3.21839" rx="1.6092" fill="#17191B"/>
<rect x="103.449" y="93.7925" width="3.21839" height="3.21839" rx="1.6092" fill="#17191B"/>
<rect x="100.23" y="93.7925" width="3.21839" height="3.21839" rx="1.6092" fill="#17191B"/>
<rect x="90.575" y="90.5735" width="3.21839" height="3.21839" rx="1.6092" fill="#17191B"/>
<rect x="90.575" y="100.229" width="3.21839" height="3.21839" rx="1.6092" fill="#17191B"/>
<rect x="90.575" y="103.447" width="3.21839" height="3.21839" rx="1.6092" fill="#17191B"/>
<rect x="80.9199" y="77.6997" width="3.21839" height="3.21839" rx="1.6092" fill="#17191B"/>
<rect x="80.9199" y="90.5735" width="3.21839" height="3.21839" rx="1.6092" fill="#17191B"/>
<rect x="71.2656" y="74.481" width="3.21839" height="3.21839" rx="1.6092" fill="#17191B"/>
<rect x="74.4829" y="80.9186" width="3.21839" height="3.21839" rx="1.6092" fill="#17191B"/>
<rect x="74.4829" y="84.1373" width="3.21839" height="3.21839" rx="1.6092" fill="#17191B"/>
<rect x="74.4829" y="103.447" width="3.21839" height="3.21839" rx="1.6092" fill="#17191B"/>
<rect x="80.9199" y="103.447" width="3.21839" height="3.21839" rx="1.6092" fill="#17191B"/>
<rect x="74.4829" y="87.3547" width="3.21839" height="3.21839" rx="1.6092" fill="#17191B"/>
<rect x="64.8274" y="87.3547" width="3.21839" height="3.21839" rx="1.6092" fill="#17191B"/>
<rect x="58.3911" y="87.3547" width="3.21839" height="3.21839" rx="1.6092" fill="#17191B"/>
<rect x="58.3911" y="93.7924" width="3.21839" height="3.21839" rx="1.6092" fill="#17191B"/>
<rect x="58.3911" y="97.0111" width="3.21839" height="3.21839" rx="1.6092" fill="#17191B"/>
<rect x="61.6101" y="93.7924" width="3.21839" height="3.21839" rx="1.6092" fill="#17191B"/>
<rect x="68.0469" y="93.7924" width="3.21839" height="3.21839" rx="1.6092" fill="#17191B"/>
<rect x="64.8274" y="93.7925" width="3.21839" height="3.21839" rx="1.6092" fill="#17191B"/>
<rect x="64.8274" y="97.0111" width="3.21839" height="3.21839" rx="1.6092" fill="#17191B"/>
<rect x="61.6101" y="100.229" width="3.21839" height="3.21839" rx="1.6092" fill="#17191B"/>
<rect x="61.6101" y="103.447" width="3.21839" height="3.21839" rx="1.6092" fill="#17191B"/>
<rect x="58.3911" y="103.447" width="3.21839" height="3.21839" rx="1.6092" fill="#17191B"/>
<rect x="55.1738" y="103.447" width="3.21839" height="3.21839" rx="1.6092" fill="#17191B"/>
<rect x="68.0469" y="100.229" width="3.21839" height="3.21839" rx="1.6092" fill="#17191B"/>
<rect x="58.3911" y="84.1373" width="3.21839" height="3.21839" rx="1.6092" fill="#17191B"/>
<rect x="58.3911" y="90.5735" width="3.21839" height="3.21839" rx="1.6092" fill="#17191B"/>
<rect x="68.0469" y="90.5735" width="3.21839" height="3.21839" rx="1.6092" fill="#17191B"/>
<rect x="68.0469" y="97.0111" width="3.21839" height="3.21839" rx="1.6092" fill="#17191B"/>
<rect x="71.2656" y="97.0111" width="3.21839" height="3.21839" rx="1.6092" fill="#17191B"/>
<rect x="55.1738" y="87.3547" width="3.21839" height="3.21839" rx="1.6092" fill="#17191B"/>
<rect x="68.0469" y="64.8259" width="3.21839" height="3.21839" rx="1.6092" fill="#17191B"/>
<rect x="71.2656" y="64.8259" width="3.21839" height="3.21839" rx="1.6092" fill="#17191B"/>
<rect x="93.793" y="74.481" width="3.21839" height="3.21839" rx="1.6092" fill="#17191B"/>
<rect x="77.7026" y="71.2635" width="3.21839" height="3.21839" rx="1.6092" fill="#17191B"/>
<rect x="93.793" y="55.171" width="3.21839" height="3.21839" rx="1.6092" fill="#17191B"/>
<rect x="103.449" y="42.2987" width="3.21839" height="3.21839" rx="1.6092" fill="#17191B"/>
<rect x="100.23" y="48.7334" width="3.21839" height="3.21839" rx="1.6092" fill="#17191B"/>
<rect x="103.449" y="55.171" width="3.21839" height="3.21839" rx="1.6092" fill="#17191B"/>
<rect x="103.449" y="68.0448" width="3.21839" height="3.21839" rx="1.6092" fill="#17191B"/>
<rect x="100.23" y="61.6086" width="3.21839" height="3.21839" rx="1.6092" fill="#17191B"/>
<rect x="100.23" y="71.2635" width="3.21839" height="3.21839" rx="1.6092" fill="#17191B"/>
<rect x="93.793" y="64.8259" width="3.21839" height="3.21839" rx="1.6092" fill="#17191B"/>
<rect x="87.3574" y="64.8259" width="3.21839" height="3.21839" rx="1.6092" fill="#17191B"/>
<rect x="84.1387" y="68.0448" width="3.21839" height="3.21839" rx="1.6092" fill="#17191B"/>
<rect x="77.7026" y="68.0448" width="3.21839" height="3.21839" rx="1.6092" fill="#17191B"/>
<rect x="84.1387" y="74.481" width="3.21839" height="3.21839" rx="1.6092" fill="#17191B"/>
<rect x="77.7026" y="74.481" width="3.21839" height="3.21839" rx="1.6092" fill="#17191B"/>
<rect x="93.793" y="58.3899" width="3.21839" height="3.21839" rx="1.6092" fill="#17191B"/>
<rect x="93.793" y="51.9537" width="3.21839" height="3.21839" rx="1.6092" fill="#17191B"/>
<rect x="80.9199" y="48.7334" width="3.21839" height="3.21839" rx="1.6092" fill="#17191B"/>
<rect x="97.0117" y="45.5161" width="3.21839" height="3.21839" rx="1.6092" fill="#17191B"/>
<rect x="90.575" y="45.5161" width="3.21839" height="3.21839" rx="1.6092" fill="#17191B"/>
<rect x="93.793" y="42.2987" width="3.21839" height="3.21839" rx="1.6092" fill="#17191B"/>
<rect x="90.575" y="39.0785" width="3.21839" height="3.21839" rx="1.6092" fill="#17191B"/>
<rect x="100.23" y="39.0785" width="3.21839" height="3.21839" rx="1.6092" fill="#17191B"/>
<rect x="64.8274" y="55.171" width="3.21839" height="3.21839" rx="1.6092" fill="#17191B"/>
<rect x="61.6101" y="55.171" width="3.21839" height="3.21839" rx="1.6092" fill="#17191B"/>
<rect x="55.1738" y="61.6086" width="3.21839" height="3.21839" rx="1.6092" fill="#17191B"/>
<rect x="68.0469" y="61.6086" width="3.21839" height="3.21839" rx="1.6092" fill="#17191B"/>
<rect x="64.8274" y="58.3899" width="3.21839" height="3.21839" rx="1.6092" fill="#17191B"/>
<rect x="61.6101" y="51.9537" width="3.21839" height="3.21839" rx="1.6092" fill="#17191B"/>
<rect x="61.6101" y="48.7334" width="3.21839" height="3.21839" rx="1.6092" fill="#17191B"/>
<rect x="45.5181" y="68.0448" width="3.21839" height="3.21839" rx="1.6092" fill="#17191B"/>
<rect x="51.9551" y="71.2635" width="3.21839" height="3.21839" rx="1.6092" fill="#17191B"/>
<rect x="48.7356" y="74.481" width="3.21839" height="3.21839" rx="1.6092" fill="#17191B"/>
<rect x="48.7356" y="80.9186" width="3.21839" height="3.21839" rx="1.6092" fill="#17191B"/>
<rect x="42.2986" y="80.9186" width="3.21839" height="3.21839" rx="1.6092" fill="#17191B"/>
<rect x="45.5181" y="80.9186" width="3.21839" height="3.21839" rx="1.6092" fill="#17191B"/>
<rect x="39.0813" y="80.9186" width="3.21839" height="3.21839" rx="1.6092" fill="#17191B"/>
<rect x="58.3911" y="68.0448" width="3.21839" height="3.21839" rx="1.6092" fill="#17191B"/>
<rect x="55.1738" y="71.2635" width="3.21839" height="3.21839" rx="1.6092" fill="#17191B"/>
<rect x="55.1738" y="55.171" width="3.21839" height="3.21839" rx="1.6092" fill="#17191B"/>
<rect x="45.5181" y="48.7334" width="3.21839" height="3.21839" rx="1.6092" fill="#17191B"/>
<rect x="55.1738" y="45.5161" width="3.21839" height="3.21839" rx="1.6092" fill="#17191B"/>
<rect x="45.5181" y="35.8611" width="3.21839" height="3.21839" rx="1.6092" fill="#17191B"/>
<rect x="48.7356" y="39.0785" width="3.21839" height="3.21839" rx="1.6092" fill="#17191B"/>
<rect x="42.2986" y="35.8611" width="3.21839" height="3.21839" rx="1.6092" fill="#17191B"/>
<rect x="45.5181" y="39.0785" width="3.21839" height="3.21839" rx="1.6092" fill="#17191B"/>
<rect x="39.0813" y="32.6438" width="3.21839" height="3.21839" rx="1.6092" fill="#17191B"/>
<rect x="39.0813" y="26.2062" width="3.21839" height="3.21839" rx="1.6092" fill="#17191B"/>
<rect x="61.6101" y="26.2062" width="3.21839" height="3.21839" rx="1.6092" fill="#17191B"/>
<rect x="61.6101" y="16.5513" width="3.21839" height="3.21839" rx="1.6092" fill="#17191B"/>
<rect x="58.3911" y="22.9873" width="3.21839" height="3.21839" rx="1.6092" fill="#17191B"/>
<rect x="71.2656" y="19.7686" width="3.21839" height="3.21839" rx="1.6092" fill="#17191B"/>
<rect x="71.2656" y="26.2062" width="3.21839" height="3.21839" rx="1.6092" fill="#17191B"/>
<rect x="68.0469" y="29.4235" width="3.21839" height="3.21839" rx="1.6092" fill="#17191B"/>
<rect x="68.0469" y="35.8611" width="3.21839" height="3.21839" rx="1.6092" fill="#17191B"/>
<rect x="68.0469" y="39.0785" width="3.21839" height="3.21839" rx="1.6092" fill="#17191B"/>
<rect x="74.4829" y="29.4235" width="3.21839" height="3.21839" rx="1.6092" fill="#17191B"/>
<rect x="77.7026" y="32.6438" width="3.21839" height="3.21839" rx="1.6092" fill="#17191B"/>
<rect x="71.2656" y="35.8611" width="3.21839" height="3.21839" rx="1.6092" fill="#17191B"/>
<rect x="74.4829" y="35.8611" width="3.21839" height="3.21839" rx="1.6092" fill="#17191B"/>
<rect x="64.8274" y="32.6438" width="3.21839" height="3.21839" rx="1.6092" fill="#17191B"/>
<rect x="51.9551" y="26.2062" width="3.21839" height="3.21839" rx="1.6092" fill="#17191B"/>
<rect x="45.5181" y="26.2062" width="3.21839" height="3.21839" rx="1.6092" fill="#17191B"/>
<rect x="42.2986" y="26.2062" width="3.21839" height="3.21839" rx="1.6092" fill="#17191B"/>
<rect x="61.6101" y="29.4235" width="3.21839" height="3.21839" rx="1.6092" fill="#17191B"/>
<rect x="58.3911" y="32.6438" width="3.21839" height="3.21839" rx="1.6092" fill="#17191B"/>
<rect x="55.1738" y="35.8611" width="3.21839" height="3.21839" rx="1.6092" fill="#17191B"/>
<rect x="61.6101" y="35.8611" width="3.21839" height="3.21839" rx="1.6092" fill="#17191B"/>
<rect x="61.6101" y="39.0785" width="3.21839" height="3.21839" rx="1.6092" fill="#17191B"/>
<rect x="58.3911" y="39.0785" width="3.21839" height="3.21839" rx="1.6092" fill="#17191B"/>
<rect x="13.3337" y="39.0785" width="3.21839" height="3.21839" rx="1.6092" fill="#17191B"/>
<rect x="19.7705" y="39.0785" width="3.21839" height="3.21839" rx="1.6092" fill="#17191B"/>
<rect x="26.2083" y="39.0785" width="3.21839" height="3.21839" rx="1.6092" fill="#17191B"/>
<rect x="32.6428" y="39.0785" width="3.21839" height="3.21839" rx="1.6092" fill="#17191B"/>
<rect x="13.3337" y="42.2987" width="3.21839" height="3.21839" rx="1.6092" fill="#17191B"/>
<rect x="22.9895" y="42.2987" width="3.21839" height="3.21839" rx="1.6092" fill="#17191B"/>
<rect x="22.9895" y="48.7334" width="3.21839" height="3.21839" rx="1.6092" fill="#17191B"/>
<rect x="22.9895" y="51.9537" width="3.21839" height="3.21839" rx="1.6092" fill="#17191B"/>
<rect x="29.4263" y="51.9537" width="3.21839" height="3.21839" rx="1.6092" fill="#17191B"/>
<rect x="32.6428" y="51.9537" width="3.21839" height="3.21839" rx="1.6092" fill="#17191B"/>
<rect x="32.6428" y="58.3899" width="3.21839" height="3.21839" rx="1.6092" fill="#17191B"/>
<rect x="29.4263" y="64.8259" width="3.21839" height="3.21839" rx="1.6092" fill="#17191B"/>
<rect x="29.4263" y="68.0448" width="3.21839" height="3.21839" rx="1.6092" fill="#17191B"/>
<rect x="22.9895" y="68.0448" width="3.21839" height="3.21839" rx="1.6092" fill="#17191B"/>
<rect x="16.551" y="68.0448" width="3.21839" height="3.21839" rx="1.6092" fill="#17191B"/>
<rect x="16.551" y="74.481" width="3.21839" height="3.21839" rx="1.6092" fill="#17191B"/>
<rect x="13.3337" y="77.6997" width="3.21839" height="3.21839" rx="1.6092" fill="#17191B"/>
<rect x="19.7705" y="71.2635" width="3.21839" height="3.21839" rx="1.6092" fill="#17191B"/>
<rect x="29.4263" y="71.2635" width="3.21839" height="3.21839" rx="1.6092" fill="#17191B"/>
<rect x="19.7705" y="74.481" width="3.21839" height="3.21839" rx="1.6092" fill="#17191B"/>
<rect x="22.9895" y="74.481" width="3.21839" height="3.21839" rx="1.6092" fill="#17191B"/>
<rect x="26.2083" y="77.6997" width="3.21839" height="3.21839" rx="1.6092" fill="#17191B"/>
<rect x="22.9895" y="71.2635" width="3.21839" height="3.21839" rx="1.6092" fill="#17191B"/>
<rect x="26.2083" y="74.481" width="3.21839" height="3.21839" rx="1.6092" fill="#17191B"/>
<rect x="32.6428" y="71.2635" width="3.21839" height="3.21839" rx="1.6092" fill="#17191B"/>
<rect x="35.8625" y="74.481" width="3.21839" height="3.21839" rx="1.6092" fill="#17191B"/>
<rect x="32.6428" y="77.6997" width="3.21839" height="3.21839" rx="1.6092" fill="#17191B"/>
<rect x="42.2986" y="71.2635" width="3.21839" height="3.21839" rx="1.6092" fill="#17191B"/>
<rect x="26.2083" y="71.2635" width="3.21839" height="3.21839" rx="1.6092" fill="#17191B"/>
<rect x="35.8625" y="71.2635" width="3.21839" height="3.21839" rx="1.6092" fill="#17191B"/>
<rect x="39.0813" y="74.481" width="3.21839" height="3.21839" rx="1.6092" fill="#17191B"/>
<rect x="45.5181" y="71.2635" width="3.21839" height="3.21839" rx="1.6092" fill="#17191B"/>
<rect x="51.9551" y="74.481" width="3.21839" height="3.21839" rx="1.6092" fill="#17191B"/>
<rect x="48.7356" y="77.6997" width="3.21839" height="3.21839" rx="1.6092" fill="#17191B"/>
<rect x="45.5181" y="77.6997" width="3.21839" height="3.21839" rx="1.6092" fill="#17191B"/>
<rect x="48.7356" y="84.1373" width="3.21839" height="3.21839" rx="1.6092" fill="#17191B"/>
<rect x="45.5181" y="84.1373" width="3.21839" height="3.21839" rx="1.6092" fill="#17191B"/>
<rect x="42.2986" y="90.5735" width="3.21839" height="3.21839" rx="1.6092" fill="#17191B"/>
<rect x="42.2986" y="94.8638" width="3.21839" height="3.21839" rx="1.6092" fill="#17191B"/>
<rect x="51.9551" y="90.5735" width="3.21839" height="3.21839" rx="1.6092" fill="#17191B"/>
<rect x="51.9551" y="100.229" width="3.21839" height="3.21839" rx="1.6092" fill="#17191B"/>
<rect x="45.5181" y="100.229" width="3.21839" height="3.21839" rx="1.6092" fill="#17191B"/>
<rect x="45.5181" y="97.0111" width="3.21839" height="3.21839" rx="1.6092" fill="#17191B"/>
<rect x="39.0813" y="97.0111" width="3.21839" height="3.21839" rx="1.6092" fill="#17191B"/>
<rect x="42.2986" y="103.447" width="3.21839" height="3.21839" rx="1.6092" fill="#17191B"/>
<rect x="48.7356" y="103.447" width="3.21839" height="3.21839" rx="1.6092" fill="#17191B"/>
<rect x="51.9551" y="93.7924" width="3.21839" height="3.21839" rx="1.6092" fill="#17191B"/>
<rect x="42.2986" y="84.1376" width="3.21839" height="3.21839" rx="1.6092" fill="#17191B"/>
<rect x="39.0813" y="90.5735" width="3.21839" height="3.21839" rx="1.6092" fill="#17191B"/>
<rect x="48.7356" y="90.5735" width="3.21839" height="3.21839" rx="1.6092" fill="#17191B"/>
<rect x="48.7356" y="100.229" width="3.21839" height="3.21839" rx="1.6092" fill="#17191B"/>
<rect x="42.2986" y="100.229" width="3.21839" height="3.21839" rx="1.6092" fill="#17191B"/>
<rect x="39.0813" y="103.447" width="3.21839" height="3.21839" rx="1.6092" fill="#17191B"/>
<rect x="45.5181" y="103.447" width="3.21839" height="3.21839" rx="1.6092" fill="#17191B"/>
<rect x="19.7705" y="64.8259" width="3.21839" height="3.21839" rx="1.6092" fill="#17191B"/>
<rect x="13.3337" y="64.8259" width="3.21839" height="3.21839" rx="1.6092" fill="#17191B"/>
<rect x="13.3337" y="71.2635" width="3.21839" height="3.21839" rx="1.6092" fill="#17191B"/>
<rect x="16.551" y="51.9537" width="3.21839" height="3.21839" rx="1.6092" fill="#17191B"/>
<rect x="13.3337" y="51.9537" width="3.21839" height="3.21839" rx="1.6092" fill="#17191B"/>
<rect x="13.3337" y="48.7334" width="3.21839" height="3.21839" rx="1.6092" fill="#17191B"/>
<rect x="13.3337" y="55.171" width="3.21839" height="3.21839" rx="1.6092" fill="#17191B"/>
<rect x="22.9895" y="55.171" width="3.21839" height="3.21839" rx="1.6092" fill="#17191B"/>
<rect x="22.9895" y="45.5161" width="3.21839" height="3.21839" rx="1.6092" fill="#17191B"/>
<rect x="16.551" y="42.2987" width="3.21839" height="3.21839" rx="1.6092" fill="#17191B"/>
<rect x="26.2083" y="42.2987" width="3.21839" height="3.21839" rx="1.6092" fill="#17191B"/>
<rect x="26.2083" y="48.7334" width="3.21839" height="3.21839" rx="1.6092" fill="#17191B"/>
<rect x="16.551" y="48.7334" width="3.21839" height="3.21839" rx="1.6092" fill="#17191B"/>
<rect x="16.551" y="55.171" width="3.21839" height="3.21839" rx="1.6092" fill="#17191B"/>
<rect x="26.2083" y="55.171" width="3.21839" height="3.21839" rx="1.6092" fill="#17191B"/>
<rect x="26.2083" y="58.3899" width="3.21839" height="3.21839" rx="1.6092" fill="#17191B"/>
<rect x="26.2083" y="61.6086" width="3.21839" height="3.21839" rx="1.6092" fill="#17191B"/>
<rect x="32.6428" y="64.8259" width="3.21839" height="3.21839" rx="1.6092" fill="#17191B"/>
<rect x="29.4263" y="45.5161" width="3.21839" height="3.21839" rx="1.6092" fill="#17191B"/>
<rect x="29.4263" y="42.2987" width="3.21839" height="3.21839" rx="1.6092" fill="#17191B"/>
<rect x="29.4263" y="48.7334" width="3.21839" height="3.21839" rx="1.6092" fill="#17191B"/>
<rect x="35.8625" y="48.7334" width="3.21839" height="3.21839" rx="1.6092" fill="#17191B"/>
<rect x="39.0813" y="48.7334" width="3.21839" height="3.21839" rx="1.6092" fill="#17191B"/>
<rect x="39.0813" y="45.5161" width="3.21839" height="3.21839" rx="1.6092" fill="#17191B"/>
<rect x="42.2986" y="42.2987" width="3.21839" height="3.21839" rx="1.6092" fill="#17191B"/>
<rect x="19.7705" y="48.7334" width="3.21839" height="3.21839" rx="1.6092" fill="#17191B"/>
<rect x="19.7705" y="55.171" width="3.21839" height="3.21839" rx="1.6092" fill="#17191B"/>
<rect x="29.4263" y="55.171" width="3.21839" height="3.21839" rx="1.6092" fill="#17191B"/>
<rect x="32.6428" y="45.5161" width="3.21839" height="3.21839" rx="1.6092" fill="#17191B"/>
<rect x="61.6101" y="19.7686" width="3.21839" height="3.21839" rx="1.6092" fill="#17191B"/>
<rect x="58.3911" y="26.2062" width="3.21839" height="3.21839" rx="1.6092" fill="#17191B"/>
<rect x="61.6101" y="13.3324" width="3.21839" height="3.21839" rx="1.6092" fill="#17191B"/>
<rect x="74.4829" y="13.3324" width="3.21839" height="3.21839" rx="1.6092" fill="#17191B"/>
<rect x="74.4829" y="16.5513" width="3.21839" height="3.21839" rx="1.6092" fill="#17191B"/>
<rect x="74.4829" y="19.7686" width="3.21839" height="3.21839" rx="1.6092" fill="#17191B"/>
<rect x="42.2986" y="16.5513" width="3.21839" height="3.21839" rx="1.6092" fill="#17191B"/>
<rect x="42.2986" y="19.7686" width="3.21839" height="3.21839" rx="1.6092" fill="#17191B"/>
<rect x="45.5181" y="16.5513" width="3.21839" height="3.21839" rx="1.6092" fill="#17191B"/>
<rect x="51.9551" y="16.5513" width="3.21839" height="3.21839" rx="1.6092" fill="#17191B"/>
<rect x="45.5181" y="19.7686" width="3.21839" height="3.21839" rx="1.6092" fill="#17191B"/>
<rect x="48.7356" y="22.9873" width="3.21839" height="3.21839" rx="1.6092" fill="#17191B"/>
</svg>
