<?xml version="1.0" encoding="UTF-8"?>
<svg xmlns="http://www.w3.org/2000/svg" width="158" height="158" viewBox="0 0 158 158" fill="none">
  <path d="M158 78.6797C158.008 91.6833 154.789 104.486 148.632 115.939C142.475 127.393 133.572 137.139 122.721 144.306H122.695C119.838 146.242 116.839 147.96 113.725 149.447C111.168 150.707 108.54 151.819 105.856 152.778C104.885 153.119 103.889 153.46 102.892 153.775C95.2599 156.163 87.3086 157.375 79.3116 157.368C71.2202 157.381 63.1763 156.133 55.469 153.67H55.4427C53.5477 153.091 51.6831 152.417 49.8559 151.65C48.2821 151.047 46.7608 150.365 45.2657 149.63C32.584 143.544 21.7657 134.17 13.9368 122.484C6.10793 110.797 1.55482 97.2259 0.751494 83.1824C-0.0518363 69.139 2.92398 55.1369 9.36913 42.6339C15.8143 30.1309 25.4931 19.5842 37.398 12.0917C49.3029 4.5992 62.9986 0.434876 77.0593 0.0322549C91.12 -0.370366 105.032 3.00344 117.346 9.80244C129.66 16.6014 139.926 26.577 147.076 38.6907C154.226 50.8044 157.999 64.6132 158 78.6797Z" fill="white"></path>
  <path d="M113.724 149.447C111.167 150.707 108.54 151.819 105.855 152.778C104.885 153.119 103.888 153.46 102.891 153.775L100.793 134.994C100.591 133.125 100.898 131.235 101.683 129.527C102.468 127.818 103.702 126.354 105.252 125.289C106.642 124.315 108.258 123.71 109.947 123.532C110.33 123.488 110.716 123.471 111.101 123.479C113.65 123.481 116.109 124.42 118.01 126.117C119.911 127.815 121.121 130.153 121.409 132.686L122.694 144.306C119.837 146.241 116.839 147.96 113.724 149.447Z" fill="#FFC189"></path>
  <path d="M113.724 149.447C111.167 150.707 108.54 151.819 105.855 152.778C104.885 153.119 103.888 153.46 102.891 153.775L100.793 134.994C100.591 133.125 100.898 131.235 101.683 129.527C102.468 127.818 103.702 126.354 105.252 125.289C106.642 124.315 108.258 123.71 109.947 123.532C110.33 123.488 110.716 123.471 111.101 123.479C113.65 123.481 116.109 124.42 118.01 126.117C119.911 127.815 121.121 130.153 121.409 132.686L122.694 144.306C119.837 146.241 116.839 147.96 113.724 149.447Z" fill="#14E1FF"></path>
  <path d="M122.694 144.306C119.837 146.241 116.839 147.96 113.724 149.447C111.167 150.707 108.54 151.819 105.855 152.778C104.885 153.119 103.888 153.46 102.891 153.775L100.793 134.994C100.591 133.125 100.898 131.235 101.683 129.527C102.468 127.818 103.702 126.354 105.252 125.289C106.642 124.315 108.258 123.71 109.947 123.532C110.33 123.488 110.716 123.471 111.101 123.479C113.65 123.481 116.109 124.42 118.01 126.117C119.911 127.815 121.121 130.153 121.409 132.686L122.694 144.306Z" fill="#14E1FF"></path>
  <path d="M113.725 147.794V149.447C111.168 150.707 108.54 151.819 105.856 152.778C104.885 153.119 103.889 153.46 102.892 153.775C95.2599 156.163 87.3085 157.375 79.3115 157.368C71.2202 157.381 63.1762 156.133 55.4689 153.67H55.4427C53.5477 153.091 51.683 152.417 49.8558 151.65C48.282 151.047 46.7607 150.365 45.2656 149.63V147.794C45.2601 141.076 47.2403 134.506 50.9574 128.909C51.7205 127.743 52.5618 126.63 53.4755 125.578C53.4755 125.571 53.4782 125.564 53.4832 125.559C53.4881 125.555 53.4947 125.552 53.5017 125.552C55.2262 123.548 57.1706 121.744 59.2984 120.175C60.5189 119.277 61.7983 118.462 63.1279 117.735C63.1279 117.735 63.1279 117.762 63.1542 117.735C65.2669 116.568 67.5009 115.636 69.8165 114.955C71.6923 114.397 73.615 114.011 75.5607 113.801C76.164 113.722 76.741 113.67 77.3443 113.644C78.0525 113.591 78.7607 113.565 79.4951 113.565C80.2296 113.565 80.9378 113.591 81.6197 113.644C82.0919 113.67 82.5378 113.696 82.9837 113.749C83.7443 113.827 84.4788 113.906 85.2132 114.037C86.0525 114.194 86.9181 114.378 87.7312 114.562C87.953 114.611 88.1719 114.672 88.3869 114.745C88.8328 114.85 89.2525 114.981 89.6722 115.112C90.2146 115.268 90.7487 115.452 91.2722 115.663C92.7537 116.189 94.192 116.829 95.5738 117.578C96.387 118.024 97.2001 118.496 97.9869 118.994C98.4066 119.257 98.8001 119.545 99.2197 119.834C100.143 120.481 101.027 121.182 101.869 121.932C102.236 122.247 102.603 122.562 102.944 122.903C103.211 123.124 103.465 123.361 103.705 123.611C104.256 124.162 104.754 124.712 105.253 125.29C110.724 131.508 113.737 139.511 113.725 147.794Z" fill="#14E1FF"></path>
  <path d="M57.5677 134.417C57.5714 134.61 57.5626 134.803 57.5414 134.994L55.4693 153.67H55.4431C53.548 153.091 51.6834 152.417 49.8562 151.65C48.2824 151.047 46.7611 150.365 45.266 149.63C41.9417 148.03 38.7338 146.198 35.666 144.148L36.9513 132.686C37.2003 130.449 38.1728 128.355 39.7209 126.722C41.2691 125.088 43.3082 124.005 45.5283 123.637C45.7799 123.589 46.0338 123.554 46.289 123.532C46.6037 123.506 46.9185 123.479 47.2332 123.479C47.6187 123.471 48.0043 123.488 48.3873 123.532C49.9856 123.713 51.5204 124.261 52.8726 125.132C53.0922 125.257 53.3026 125.397 53.5021 125.552C53.8048 125.769 54.0859 126.015 54.3414 126.286C55.4847 127.335 56.3653 128.637 56.9119 130.089C56.9119 130.089 56.8857 130.089 56.9119 130.116C57.4491 131.482 57.6731 132.952 57.5677 134.417Z" fill="#FFC189"></path>
  <path d="M57.5677 134.417C57.5714 134.61 57.5626 134.803 57.5414 134.994L55.4431 153.67C53.548 153.091 51.6834 152.417 49.8562 151.65C48.2824 151.047 46.7611 150.365 45.266 149.63C41.9417 148.03 38.7338 146.198 35.666 144.148L36.9513 132.686C37.2003 130.449 38.1728 128.355 39.7209 126.722C41.2691 125.088 43.3082 124.005 45.5283 123.637C45.7799 123.589 46.0338 123.554 46.289 123.532C46.6037 123.506 46.9185 123.479 47.2332 123.479C47.6187 123.471 48.0043 123.488 48.3873 123.532C49.9856 123.713 51.5204 124.261 52.8726 125.132C53.0922 125.257 53.3026 125.397 53.5021 125.552C53.8048 125.769 54.0859 126.015 54.3414 126.286C55.4847 127.335 56.3653 128.637 56.9119 130.089C56.9119 130.089 56.8857 130.089 56.9119 130.116C57.4491 131.482 57.6731 132.952 57.5677 134.417Z" fill="#FFAB00"></path>
  <path d="M57.5677 134.417C57.5714 134.61 57.5626 134.803 57.5414 134.994L55.4693 153.67H55.4431C53.548 153.091 51.6834 152.417 49.8562 151.65C48.2824 151.047 46.7611 150.365 45.266 149.63C41.9417 148.03 38.7338 146.198 35.666 144.148L36.9513 132.686C37.2003 130.449 38.1728 128.355 39.7209 126.722C41.2691 125.088 43.3082 124.005 45.5283 123.637C45.7799 123.589 46.0338 123.554 46.289 123.532C46.6037 123.506 46.9185 123.479 47.2332 123.479C47.6187 123.471 48.0043 123.488 48.3873 123.532C49.9856 123.713 51.5204 124.261 52.8726 125.132C53.0922 125.257 53.3026 125.397 53.5021 125.552C53.8048 125.769 54.0859 126.015 54.3414 126.286C55.4847 127.335 56.3653 128.637 56.9119 130.089C56.9119 130.089 56.8857 130.089 56.9119 130.116C57.4491 131.482 57.6731 132.952 57.5677 134.417Z" fill="#14E1FF"></path>
  <g style="mix-blend-mode:multiply">
    <g style="mix-blend-mode:multiply">
      <path d="M57.5667 134.417C57.5704 134.61 57.5617 134.803 57.5405 134.994L55.4683 153.67H55.4421C53.5471 153.091 51.6824 152.417 49.8552 151.65L51.7962 134.339C52.0569 132.116 51.5859 129.869 50.4547 127.937C49.3235 126.006 47.5937 124.497 45.5273 123.637C45.779 123.589 46.0328 123.554 46.288 123.532C46.6028 123.506 46.9175 123.479 47.2323 123.479C47.6177 123.471 48.0033 123.488 48.3864 123.532C49.9846 123.713 51.5195 124.261 52.8716 125.132C53.0892 125.257 53.2916 125.406 53.4749 125.578C53.7761 125.798 54.065 126.034 54.3405 126.286C55.4588 127.356 56.3352 128.653 56.9109 130.089C56.9109 130.089 56.8847 130.089 56.9109 130.116C57.4481 131.482 57.6722 132.952 57.5667 134.417Z" fill="#14E1FF"></path>
    </g>
  </g>
  <g style="mix-blend-mode:multiply">
    <path fill-rule="evenodd" clip-rule="evenodd" d="M102.946 122.902C102.947 122.901 102.949 122.901 102.951 122.9C102.882 122.835 102.813 122.771 102.744 122.706C102.651 122.618 102.556 122.531 102.461 122.446C102.081 122.1 101.694 121.764 101.3 121.437C100.632 120.872 99.9383 120.337 99.2215 119.834C99.0991 119.75 98.9789 119.665 98.8597 119.582C98.5701 119.379 98.286 119.18 97.9887 118.994C97.2018 118.496 96.3887 118.024 95.5756 117.578C94.2727 116.872 92.9197 116.262 91.5275 115.754C91.4112 115.711 91.2946 115.667 91.1778 115.625C90.6851 115.43 90.1832 115.259 89.674 115.112C89.2866 114.991 88.8993 114.87 88.4913 114.77C88.4415 114.756 88.3916 114.743 88.3417 114.729C88.1418 114.663 87.9386 114.607 87.733 114.562C87.5318 114.516 87.3273 114.471 87.1209 114.426C86.6903 114.327 86.2574 114.237 85.8225 114.155C85.6192 114.114 85.4163 114.075 85.215 114.037C84.7677 113.957 84.3204 113.897 83.8673 113.844C83.1233 113.748 82.3745 113.676 81.6218 113.629C73.6462 113.131 65.7485 115.446 59.3047 120.172C66.6749 124.593 75.1309 126.872 83.7244 126.756C88.2563 126.784 92.7593 126.175 97.1029 124.955C102.723 131.237 105.838 139.365 105.858 147.794V152.778C108.542 151.819 111.169 150.707 113.726 149.447V147.794C113.739 139.511 110.726 131.508 105.254 125.29C104.756 124.712 104.258 124.162 103.707 123.611C103.466 123.361 103.213 123.124 102.946 122.903C102.946 122.902 102.946 122.902 102.946 122.902Z" fill="#14E1FF"></path>
  </g>
  <path d="M90.3944 31.0048H67.9105C48.7076 31.0048 33.1406 46.5712 33.1406 65.7733C33.1406 84.9754 48.7076 100.542 67.9105 100.542H90.3944C109.597 100.542 125.164 84.9754 125.164 65.7733C125.164 46.5712 109.597 31.0048 90.3944 31.0048Z" fill="#4E4E4E"></path>
  <path d="M120.611 74.8712H111.913C107.192 74.8712 103.365 78.6984 103.365 83.4194V83.4221C103.365 88.1431 107.192 91.9703 111.913 91.9703H120.611C125.332 91.9703 129.159 88.1431 129.159 83.4221V83.4194C129.159 78.6984 125.332 74.8712 120.611 74.8712Z" fill="#FAB578"></path>
  <path d="M46.3162 74.8712H37.6185C32.8975 74.8712 29.0703 78.6984 29.0703 83.4194V83.4221C29.0703 88.1431 32.8975 91.9703 37.6185 91.9703H46.3162C51.0373 91.9703 54.8644 88.1431 54.8644 83.4221V83.4194C54.8644 78.6984 51.0373 74.8712 46.3162 74.8712Z" fill="#FAB578"></path>
  <path d="M119.055 71.7526V82.6379C119.058 87.5956 118.084 92.5054 116.189 97.0864C114.293 101.667 111.513 105.83 108.007 109.336C104.502 112.841 100.34 115.622 95.7588 117.518C91.1779 119.414 86.2682 120.388 81.3104 120.385H76.9826C72.025 120.388 67.1155 119.414 62.5348 117.518C57.954 115.622 53.7919 112.842 50.2864 109.337C46.7809 105.831 44.0008 101.669 42.1051 97.0883C40.2094 92.5075 39.2352 87.598 39.2383 82.6405V71.7553C39.2378 69.599 39.4398 67.4475 39.8416 65.329C40.1582 63.6814 40.5966 62.0594 41.153 60.4766C41.3268 59.9591 41.5282 59.4512 41.7563 58.9552C44.2967 52.6631 48.6616 47.2749 54.2896 43.484C59.9175 39.6931 66.551 37.6728 73.3367 37.6831H84.9825C90.1666 37.672 95.2841 38.8509 99.9407 41.1292C104.597 43.4075 108.669 46.7243 111.842 50.8241C112.653 51.8116 113.381 52.8643 114.019 53.9716C117.324 59.3123 119.069 65.4717 119.055 71.7526Z" fill="#FFC189"></path>
  <path d="M120.214 33.3997C113.694 34.4718 107.004 33.6798 100.914 31.1151C87.92 25.4679 69.0688 23.8574 59.996 31.9465C53.1123 33.561 46.8843 37.2357 42.1427 42.4806C37.4011 47.7255 34.3712 54.2914 33.457 61.3026C46.7239 61.0115 58.1862 55.0075 64.0695 46.2652C64.1324 46.3387 64.1823 46.4226 64.2479 46.4961C68.8879 51.7656 77.6564 56.1406 93.3626 56.1406C103.815 56.1406 121.09 49.6908 122.404 35.5347C122.426 35.244 122.383 34.9521 122.28 34.6794C122.177 34.4067 122.016 34.1599 121.807 33.9564C121.598 33.7529 121.347 33.5976 121.072 33.5014C120.797 33.4052 120.504 33.3705 120.214 33.3997Z" fill="#4E4E4E"></path>
  <g style="mix-blend-mode:multiply" opacity="0.5">
    <g style="mix-blend-mode:multiply" opacity="0.5">
      <path d="M119.055 71.7526V82.6378C119.056 87.595 118.081 92.5039 116.185 97.084C114.288 101.664 111.508 105.826 108.003 109.331C104.498 112.836 100.337 115.617 95.7566 117.513C91.1766 119.41 86.2679 120.386 81.3107 120.385H76.9828C69.958 120.387 63.0723 118.426 57.1027 114.723C51.1332 111.02 46.3176 105.722 43.1992 99.4273C46.4506 104.251 50.8372 108.201 55.9735 110.932C61.1097 113.662 66.8381 115.089 72.655 115.086H76.7205C86.1457 115.084 95.1841 111.338 101.849 104.674C108.513 98.009 112.259 88.9706 112.262 79.5454V69.2896C112.261 61.7517 109.606 54.4548 104.761 48.6797C99.9166 42.9047 93.1927 39.0206 85.7697 37.7093C94.6668 37.9068 103.133 41.5806 109.354 47.9437C115.576 54.3069 119.058 62.8534 119.055 71.7526Z" fill="#FFC189"></path>
    </g>
  </g>
  <g style="mix-blend-mode:multiply" opacity="0.5">
    <path d="M121.357 39.9675C120.828 41.4582 120.083 42.8634 119.146 44.138C117.389 41.1761 115.27 38.4447 112.838 36.0068C111.983 35.1544 111.104 34.3255 110.199 33.5701C112.219 33.7885 114.255 33.8228 116.282 33.6724C118.159 35.6147 119.857 37.7215 121.357 39.9675Z" fill="#FFC189"></path>
  </g>
  <g style="mix-blend-mode:multiply" opacity="0.5">
    <path d="M129.221 83.2122C129.216 85.4698 128.317 87.6335 126.721 89.23C125.125 90.8266 122.962 91.726 120.704 91.7316H118.191C118.417 91.4693 118.616 91.228 118.818 90.9447C118.634 89.6954 118.517 88.4373 118.467 87.1755C118.441 86.824 118.441 86.4962 118.441 86.1447C118.441 85.7932 118.417 85.4916 118.417 85.1637C118.405 82.7284 118.624 80.2975 119.07 77.9034C119.269 76.8156 119.537 75.7415 119.873 74.6876C121.079 70.7165 122.965 67.9519 125.119 67.2752C124.997 69.9908 124.55 72.682 123.786 75.2909C125.384 75.9108 126.758 76.9986 127.727 78.4119C128.697 79.8252 129.218 81.4983 129.221 83.2122Z" fill="#FFC189"></path>
  </g>
  <g style="mix-blend-mode:multiply" opacity="0.5">
    <path d="M47.1596 82.9524C47.1596 89.9557 45.4547 96.0147 42.9629 99.0049C40.5029 93.8998 39.2296 88.3044 39.2383 82.6376V71.7524C39.2378 69.5962 39.4398 67.4446 39.8416 65.3262C40.1583 63.6785 40.5966 62.0566 41.1531 60.4737C41.3269 59.9562 41.5282 59.4484 41.7564 58.9524C41.5244 60.7089 41.4105 62.479 41.4154 64.2508C41.4154 64.6967 41.4416 65.1426 41.4678 65.5885C44.7465 67.7393 47.1596 74.6639 47.1596 82.9524Z" fill="#FFC189"></path>
  </g>
  <g style="mix-blend-mode:multiply" opacity="0.5">
    <g style="mix-blend-mode:multiply" opacity="0.5">
      <path d="M114.019 53.969C107.967 58.2555 100.765 60.6225 93.35 60.7625C77.6648 60.7625 68.8779 56.4084 64.2615 51.1363C64.1923 51.0641 64.1307 50.985 64.0779 50.9002C61.2118 54.807 57.5892 58.0975 53.4256 60.5759C49.262 63.0542 44.6425 64.6698 39.8418 65.3264C40.1584 63.6787 40.5968 62.0568 41.1533 60.474C50.3559 58.9048 58.5818 53.8037 64.0779 46.2576C64.1307 46.3424 64.1923 46.4215 64.2615 46.4936C68.8779 51.7658 77.6648 56.1461 93.35 56.1461C99.8729 56.0152 106.248 54.1795 111.842 50.8215C112.653 51.809 113.381 52.8617 114.019 53.969Z" fill="#FFC189"></path>
    </g>
  </g>
  <g style="mix-blend-mode:multiply" opacity="0.5">
    <path d="M118.11 91.0573C117.597 93.354 116.859 95.5944 115.906 97.7458C115.727 98.1755 115.525 98.5957 115.303 99.0048C110.708 103.058 105.201 105.938 99.2505 107.398C99.0957 108.428 98.6582 109.395 97.9865 110.191C97.3149 110.986 96.4356 111.58 95.4465 111.906C94.4573 112.232 93.3972 112.276 92.3842 112.035C91.3711 111.794 90.4448 111.277 89.7084 110.54C88.9721 109.804 88.4545 108.878 88.2134 107.865C87.9723 106.852 88.0171 105.791 88.3428 104.802C88.6685 103.813 89.2623 102.934 90.0582 102.262C90.8541 101.591 91.8207 101.153 92.8505 100.998C94.0414 100.82 95.2581 101.033 96.3177 101.605C97.3772 102.177 98.2223 103.078 98.7259 104.172C106.541 102.244 113.413 97.5945 118.11 91.0573Z" fill="#FFC189"></path>
  </g>
  <path d="M131.145 83.0313C131.145 83.5035 131.119 84.0018 131.093 84.4477C131.092 85.9068 130.969 87.3633 130.726 88.8018C129.729 95.9625 126.817 101.103 123.381 101.103C120.68 101.103 118.293 97.8772 116.876 92.9985C111.448 99.2138 104.133 103.479 96.0502 105.143C95.817 106.489 95.1075 107.706 94.0511 108.572C92.9948 109.439 91.6621 109.896 90.2964 109.861C88.9307 109.826 87.6232 109.301 86.6125 108.382C85.6018 107.463 84.9554 106.211 84.7914 104.855C84.6273 103.498 84.9565 102.129 85.7189 100.995C86.4812 99.8613 87.6259 99.0397 88.9438 98.6801C90.2618 98.3205 91.6651 98.447 92.8976 99.0363C94.13 99.6257 95.1094 100.639 95.6568 101.89C103.832 100.19 111.09 95.5287 116.037 88.8018C115.737 86.893 115.588 84.9635 115.591 83.0313C115.591 73.7461 118.608 66.0871 122.49 65.0641C122.52 64.8204 122.538 64.5752 122.542 64.3297C122.55 58.6676 121.435 53.0602 119.263 47.8313C117.132 42.6173 114.005 37.8687 110.057 33.851C105.105 28.8635 98.993 25.1823 92.2689 23.137C85.5448 21.0918 78.4183 20.7463 71.5279 22.1317C64.6375 23.5171 58.1984 26.5899 52.7872 31.0751C47.3761 35.5602 43.162 41.3175 40.5224 47.8313C38.3628 53.064 37.2489 58.6689 37.2437 64.3297C37.2437 64.7756 37.2699 65.2215 37.2961 65.6674C40.5748 67.8182 42.9879 74.7428 42.9879 83.0313C42.9879 93.0248 39.5256 101.103 35.224 101.103C32.0502 101.103 29.3224 96.6707 28.1158 90.2969C27.6611 87.9022 27.4415 85.4688 27.4601 83.0313C27.4601 74.6379 29.8994 67.6346 33.2043 65.5625C33.2043 65.1428 33.1781 64.7494 33.1781 64.3297C33.169 51.8313 38.0887 39.8334 46.8699 30.9395C51.1789 26.5539 56.3183 23.0705 61.9881 20.6926C67.6579 18.3147 73.7446 17.0901 79.8929 17.0901C86.0411 17.0901 92.1278 18.3147 97.7976 20.6926C103.467 23.0705 108.607 26.5539 112.916 30.9395C121.697 39.8334 126.617 51.8313 126.608 64.3297C126.608 65.0379 126.555 65.7723 126.529 66.5067C127.155 67.1694 127.692 67.9099 128.129 68.71C130.266 73.1737 131.3 78.085 131.145 83.0313Z" fill="#147DFA"></path>
  <g style="mix-blend-mode:multiply">
    <path d="M42.989 83.005C43.0152 92.9985 39.5529 101.103 35.2775 101.103C32.5759 101.103 30.189 97.9296 28.7988 93.0772C29.2303 93.6635 29.7851 94.1482 30.424 94.4971C31.063 94.8461 31.7706 95.0508 32.4972 95.0968C36.7726 95.0706 40.2349 87.569 40.2087 78.31C40.3023 73.9994 39.3955 69.7258 37.5595 65.8247C40.6808 68.1591 42.9628 74.9788 42.989 83.005Z" fill="#147DFA"></path>
  </g>
  <g style="mix-blend-mode:multiply">
    <path d="M96.1554 104.172C96.174 105.575 95.6679 106.935 94.7364 107.984C93.8048 109.033 92.515 109.697 91.1197 109.844C89.7244 109.992 88.3242 109.613 87.1936 108.783C86.0629 107.952 85.2834 106.728 85.0078 105.353C85.8611 106.33 87.0495 106.953 88.3391 107.099C89.6286 107.244 90.9259 106.901 91.9754 106.138C93.0249 105.375 93.7507 104.246 94.0097 102.974C94.2687 101.703 94.0423 100.38 93.375 99.2673C94.2249 99.7726 94.9283 100.491 95.4159 101.351C95.9034 102.211 96.1583 103.184 96.1554 104.172Z" fill="#147DFA"></path>
  </g>
  <g style="mix-blend-mode:multiply">
    <path d="M131.145 82.9787C131.198 92.9721 127.735 101.077 123.434 101.077C121.073 101.103 118.948 98.6377 117.532 94.7557C118.031 94.9606 118.566 95.0675 119.106 95.0705C123.381 95.0443 126.843 87.8574 126.817 79.018C127.081 74.0242 125.649 69.0878 122.752 65.0115C122.94 64.9596 123.134 64.9332 123.329 64.9328C123.771 64.9285 124.209 65.0179 124.614 65.1951C124.745 62.6508 125.899 24.3295 79.8926 17.0902C86.04 17.0954 92.1251 18.3224 97.7942 20.6999C103.463 23.0774 108.603 26.558 112.916 30.9393C121.697 39.8332 126.617 51.8311 126.607 64.3295C126.607 65.0377 126.555 65.7721 126.529 66.5066C126.724 66.6893 126.899 66.8915 127.053 67.1098C127.424 67.5904 127.758 68.0991 128.05 68.6312C130.222 73.0946 131.284 78.0167 131.145 82.9787Z" fill="#147DFA"></path>
  </g>
  <g style="mix-blend-mode:multiply">
    <path d="M128.13 68.7125L128.051 68.6338C127.759 68.1018 127.426 67.5931 127.055 67.1125C127.452 67.6186 127.812 68.1534 128.13 68.7125Z" fill="#147DFA"></path>
  </g>
  <path d="M122.396 35.4666C121.085 49.599 103.876 56.0305 93.46 56.0305C91.4841 56.0305 89.6086 55.9632 87.8338 55.8285C84.8515 46.7872 81.001 35.199 77.9531 26.3571C85.8756 26.3433 93.7171 27.95 100.996 31.0784C107.067 33.612 113.724 34.4005 120.219 33.3551C120.507 33.3242 120.798 33.3571 121.072 33.4513C121.346 33.5456 121.595 33.6989 121.803 33.9004C122.011 34.1019 122.172 34.3467 122.274 34.6174C122.377 34.888 122.418 35.1779 122.396 35.4666Z" fill="#4E4E4E"></path>
  <g style="mix-blend-mode:multiply" opacity="0.6">
    <g style="mix-blend-mode:multiply" opacity="0.6">
      <path d="M122.386 35.5296C121.074 49.6935 103.815 56.146 93.3499 56.146C77.6646 56.146 68.8778 51.7657 64.2614 46.4935C64.1921 46.4214 64.1306 46.3423 64.0778 46.2575C60.9512 50.4908 56.9511 54.0026 52.3487 56.555C47.7463 59.1073 42.6491 60.6406 37.4023 61.0509C37.4102 60.5859 37.4452 60.1217 37.5073 59.6607C42.6747 59.0406 47.6415 57.2874 52.0531 54.5261C56.4648 51.7649 60.2124 48.0638 63.0286 43.687C63.0978 43.7591 63.1593 43.8382 63.2122 43.923C67.9597 48.9853 76.6417 52.946 91.8548 52.264C101.193 51.8181 115.907 45.6804 118.635 33.5624L120.209 33.405C120.497 33.3762 120.789 33.411 121.062 33.5068C121.336 33.6027 121.585 33.7573 121.793 33.9597C122 34.1622 122.161 34.4077 122.263 34.6789C122.366 34.9501 122.408 35.2405 122.386 35.5296Z" fill="#4E4E4E"></path>
    </g>
  </g>
</svg>