<svg width="145" height="32" viewBox="0 0 145 32" fill="none" xmlns="http://www.w3.org/2000/svg">
<path d="M12.4793 8.96662C12.1499 8.55057 11.6992 8.2472 11.1271 8.05651C10.5724 7.84848 10.0437 7.74447 9.54094 7.74447C9.24624 7.74447 8.94286 7.77914 8.63083 7.84848C8.31879 7.91782 8.02408 8.0305 7.74672 8.18652C7.46935 8.32521 7.24399 8.51589 7.07063 8.75859C6.89728 9.00129 6.8106 9.29599 6.8106 9.6427C6.8106 10.1974 7.01862 10.6222 7.43468 10.9169C7.85073 11.2116 8.37079 11.4629 8.99487 11.671C9.63628 11.879 10.321 12.087 11.0491 12.295C11.7772 12.5031 12.4533 12.7978 13.0774 13.1791C13.7188 13.5605 14.2475 14.0719 14.6636 14.7133C15.0796 15.3548 15.2877 16.2129 15.2877 17.2877C15.2877 18.3105 15.097 19.2032 14.7156 19.966C14.3342 20.7288 13.8141 21.3615 13.1554 21.8642C12.514 22.367 11.7599 22.7397 10.8931 22.9824C10.0437 23.2251 9.14222 23.3464 8.18877 23.3464C6.99262 23.3464 5.88315 23.1644 4.86036 22.8003C3.83756 22.4363 2.88411 21.8469 2 21.0321L4.88636 17.8597C5.30241 18.4145 5.82248 18.8479 6.44655 19.1599C7.08797 19.4546 7.74672 19.6019 8.4228 19.6019C8.75217 19.6019 9.08155 19.5673 9.41092 19.4979C9.75763 19.4113 10.061 19.2899 10.321 19.1339C10.5984 18.9779 10.8151 18.7785 10.9711 18.5358C11.1445 18.2931 11.2311 18.0071 11.2311 17.6777C11.2311 17.123 11.0145 16.6896 10.5811 16.3775C10.165 16.0482 9.63628 15.7708 8.99487 15.5454C8.35346 15.3201 7.66004 15.0947 6.91461 14.8694C6.16919 14.644 5.47577 14.3406 4.83435 13.9592C4.19294 13.5779 3.65554 13.0751 3.22215 12.4511C2.8061 11.827 2.59807 11.0035 2.59807 9.98074C2.59807 8.99262 2.78876 8.12585 3.17015 7.38042C3.56886 6.63499 4.08893 6.01092 4.73034 5.50819C5.38909 5.00546 6.14318 4.63274 6.99262 4.39005C7.84206 4.13002 8.7175 4 9.61895 4C10.6591 4 11.6645 4.14735 12.6353 4.44205C13.6061 4.73676 14.4816 5.23082 15.2617 5.92424L12.4793 8.96662Z" fill="#014392"/>
<path d="M29.7251 22.8784H25.9807V21.1621H25.9287C25.79 21.4048 25.608 21.6475 25.3826 21.8902C25.1746 22.1329 24.9145 22.3496 24.6025 22.5403C24.2905 22.731 23.9351 22.887 23.5364 23.0084C23.1377 23.1297 22.7043 23.1904 22.2362 23.1904C21.2481 23.1904 20.442 23.043 19.8179 22.7483C19.2112 22.4363 18.7344 22.0116 18.3877 21.4742C18.0584 20.9368 17.833 20.304 17.7116 19.5759C17.6076 18.8479 17.5556 18.0591 17.5556 17.2096V10.2408H21.4561V16.4296C21.4561 16.7936 21.4648 17.175 21.4821 17.5737C21.5168 17.9551 21.5948 18.3105 21.7161 18.6398C21.8548 18.9692 22.0542 19.2379 22.3142 19.4459C22.5916 19.654 22.9816 19.758 23.4844 19.758C23.9871 19.758 24.3945 19.6713 24.7065 19.4979C25.0186 19.3072 25.2526 19.0645 25.4086 18.7698C25.582 18.4578 25.6946 18.1111 25.7466 17.7297C25.7987 17.3483 25.8247 16.9496 25.8247 16.5336V10.2408H29.7251V22.8784Z" fill="#014392"/>
<path d="M32.2271 10.2408H36.1276V12.269H36.1796C36.5957 11.4889 37.0897 10.9082 37.6618 10.5268C38.2339 10.1281 38.9533 9.92874 39.8201 9.92874C40.0454 9.92874 40.2708 9.93741 40.4962 9.95474C40.7215 9.97208 40.9296 10.0067 41.1202 10.0588V13.6212C40.8429 13.5345 40.5655 13.4738 40.2881 13.4392C40.0281 13.3872 39.7507 13.3612 39.456 13.3612C38.7106 13.3612 38.1212 13.4652 37.6878 13.6732C37.2544 13.8812 36.9164 14.1759 36.6737 14.5573C36.4483 14.9214 36.301 15.3634 36.2316 15.8835C36.1623 16.4035 36.1276 16.9756 36.1276 17.5997V22.8784H32.2271V10.2408Z" fill="#014392"/>
<path d="M42.9204 10.2408H46.5088V11.905H46.5608C46.7168 11.6796 46.9162 11.4543 47.1589 11.2289C47.4189 10.9862 47.7136 10.7695 48.043 10.5788C48.3897 10.3881 48.7624 10.2321 49.1611 10.1108C49.5598 9.98941 49.9846 9.92874 50.4353 9.92874C51.3714 9.92874 52.2208 10.0934 52.9836 10.4228C53.7464 10.7348 54.3965 11.1856 54.9338 11.775C55.4886 12.347 55.9133 13.0318 56.208 13.8292C56.5027 14.6267 56.6501 15.5021 56.6501 16.4556C56.6501 17.3397 56.5114 18.1891 56.234 19.0039C55.974 19.8013 55.5926 20.5121 55.0899 21.1361C54.6045 21.7602 54.0064 22.2629 53.2957 22.6443C52.5849 23.0084 51.7788 23.1904 50.8773 23.1904C50.0626 23.1904 49.2998 23.069 48.5891 22.8263C47.8956 22.5663 47.3236 22.1329 46.8728 21.5262H46.8208V28.8071H42.9204V10.2408ZM46.5088 16.5596C46.5088 17.513 46.7775 18.2844 47.3149 18.8739C47.8696 19.4633 48.6411 19.758 49.6292 19.758C50.6173 19.758 51.3801 19.4633 51.9175 18.8739C52.4722 18.2844 52.7496 17.513 52.7496 16.5596C52.7496 15.6061 52.4722 14.8347 51.9175 14.2453C51.3801 13.6559 50.6173 13.3612 49.6292 13.3612C48.6411 13.3612 47.8696 13.6559 47.3149 14.2453C46.7775 14.8347 46.5088 15.6061 46.5088 16.5596Z" fill="#014392"/>
<path d="M58.6753 10.2408H62.5758V12.269H62.6278C63.0438 11.4889 63.5379 10.9082 64.11 10.5268C64.682 10.1281 65.4014 9.92874 66.2682 9.92874C66.4936 9.92874 66.7189 9.93741 66.9443 9.95474C67.1697 9.97208 67.3777 10.0067 67.5684 10.0588V13.6212C67.291 13.5345 67.0136 13.4738 66.7363 13.4392C66.4762 13.3872 66.1989 13.3612 65.9042 13.3612C65.1587 13.3612 64.5693 13.4652 64.136 13.6732C63.7026 13.8812 63.3645 14.1759 63.1218 14.5573C62.8965 14.9214 62.7491 15.3634 62.6798 15.8835C62.6104 16.4035 62.5758 16.9756 62.5758 17.5997V22.8784H58.6753V10.2408Z" fill="#014392"/>
<path d="M69.0565 10.2408H72.9569V22.8784H69.0565V10.2408ZM68.7444 6.26228C68.7444 5.6382 68.9611 5.10947 69.3945 4.67608C69.8452 4.22536 70.3826 4 71.0067 4C71.6308 4 72.1595 4.22536 72.5929 4.67608C73.0436 5.10947 73.269 5.6382 73.269 6.26228C73.269 6.88636 73.0436 7.42376 72.5929 7.87448C72.1595 8.30787 71.6308 8.52456 71.0067 8.52456C70.3826 8.52456 69.8452 8.30787 69.3945 7.87448C68.9611 7.42376 68.7444 6.88636 68.7444 6.26228Z" fill="#014392"/>
<path d="M82.6501 13.9592C82.078 13.2485 81.3239 12.8931 80.3878 12.8931C80.0584 12.8931 79.7377 12.9711 79.4257 13.1271C79.1136 13.2832 78.9576 13.5519 78.9576 13.9332C78.9576 14.2453 79.1136 14.4793 79.4257 14.6353C79.755 14.774 80.1624 14.904 80.6478 15.0254C81.1505 15.1294 81.6793 15.2507 82.234 15.3894C82.8061 15.5108 83.3348 15.7101 83.8202 15.9875C84.3229 16.2649 84.7303 16.6462 85.0424 17.1316C85.3717 17.5997 85.5364 18.2324 85.5364 19.0299C85.5364 19.8446 85.3544 20.5207 84.9903 21.0581C84.6436 21.5782 84.1929 22.0029 83.6382 22.3323C83.0834 22.6443 82.4594 22.861 81.7659 22.9824C81.0725 23.1211 80.3878 23.1904 79.7117 23.1904C78.8276 23.1904 77.9348 23.069 77.0334 22.8263C76.1319 22.5663 75.3691 22.1156 74.7451 21.4742L77.1114 18.8479C77.4754 19.2986 77.8741 19.6453 78.3075 19.888C78.7582 20.1133 79.2783 20.226 79.8677 20.226C80.3184 20.226 80.7258 20.1654 81.0899 20.044C81.4539 19.9053 81.6359 19.6626 81.6359 19.3159C81.6359 18.9865 81.4712 18.7438 81.1419 18.5878C80.8298 18.4145 80.4224 18.2758 79.9197 18.1718C79.4343 18.0504 78.9056 17.9291 78.3335 17.8077C77.7788 17.669 77.25 17.4697 76.7473 17.2096C76.2619 16.9496 75.8545 16.5856 75.5252 16.1175C75.2131 15.6321 75.0571 14.9907 75.0571 14.1933C75.0571 13.4478 75.2045 12.8064 75.4992 12.269C75.8112 11.7316 76.2099 11.2896 76.6953 10.9429C77.198 10.5962 77.7701 10.3448 78.4115 10.1888C79.0529 10.0154 79.703 9.92874 80.3618 9.92874C81.1939 9.92874 82.0346 10.0501 82.8841 10.2928C83.7335 10.5355 84.4529 10.9689 85.0424 11.5929L82.6501 13.9592Z" fill="#014392"/>
<path d="M99.2373 20.6941C98.6132 21.4915 97.8244 22.1069 96.871 22.5403C95.9175 22.9737 94.9294 23.1904 93.9066 23.1904C92.9358 23.1904 92.017 23.0344 91.1503 22.7223C90.3008 22.4103 89.5554 21.9682 88.914 21.3962C88.2899 20.8068 87.7959 20.1047 87.4318 19.2899C87.0678 18.4751 86.8857 17.565 86.8857 16.5596C86.8857 15.5541 87.0678 14.644 87.4318 13.8292C87.7959 13.0145 88.2899 12.321 88.914 11.749C89.5554 11.1596 90.3008 10.7088 91.1503 10.3968C92.017 10.0848 92.9358 9.92874 93.9066 9.92874C94.8081 9.92874 95.6228 10.0848 96.3509 10.3968C97.0963 10.7088 97.7204 11.1596 98.2231 11.749C98.7432 12.321 99.1419 13.0145 99.4193 13.8292C99.6967 14.644 99.8354 15.5541 99.8354 16.5596V17.7817H90.7862C90.9422 18.5271 91.2803 19.1252 91.8003 19.5759C92.3204 20.0093 92.9618 20.226 93.7246 20.226C94.366 20.226 94.9034 20.0873 95.3368 19.81C95.7875 19.5153 96.1776 19.1426 96.5069 18.6918L99.2373 20.6941ZM95.9349 15.1294C95.9522 14.4706 95.7355 13.9072 95.2848 13.4392C94.8341 12.9711 94.2533 12.7371 93.5426 12.7371C93.1092 12.7371 92.7278 12.8064 92.3984 12.9451C92.069 13.0838 91.783 13.2658 91.5403 13.4912C91.315 13.6992 91.1329 13.9506 90.9942 14.2453C90.8729 14.5226 90.8036 14.8173 90.7862 15.1294H95.9349Z" fill="#014392"/>
<path d="M101.661 21.2011C101.661 20.9541 101.707 20.7201 101.798 20.4991C101.889 20.278 102.012 20.0895 102.168 19.9335C102.337 19.7645 102.532 19.6345 102.753 19.5434C102.974 19.4524 103.208 19.4069 103.455 19.4069C103.703 19.4069 103.937 19.4524 104.158 19.5434C104.379 19.6345 104.567 19.7645 104.723 19.9335C104.892 20.0895 105.022 20.278 105.113 20.4991C105.204 20.7201 105.25 20.9541 105.25 21.2011C105.25 21.4482 105.204 21.6822 105.113 21.9032C105.022 22.1243 104.892 22.3193 104.723 22.4883C104.567 22.6443 104.379 22.7678 104.158 22.8589C103.937 22.9499 103.703 22.9954 103.455 22.9954C103.208 22.9954 102.974 22.9499 102.753 22.8589C102.532 22.7678 102.337 22.6443 102.168 22.4883C102.012 22.3193 101.889 22.1243 101.798 21.9032C101.707 21.6822 101.661 21.4482 101.661 21.2011Z" fill="#014392"/>
<path d="M113.595 16.4621C113.452 16.254 113.25 16.085 112.99 15.955C112.73 15.812 112.451 15.7405 112.152 15.7405C111.41 15.7405 110.832 15.9615 110.416 16.4035C110.013 16.8456 109.811 17.4242 109.811 18.1393C109.811 18.8544 110.013 19.4329 110.416 19.875C110.832 20.317 111.41 20.5381 112.152 20.5381C112.477 20.5381 112.756 20.4666 112.99 20.3235C113.224 20.1805 113.426 20.0115 113.595 19.8165L115.526 21.8447C115.07 22.3128 114.531 22.6443 113.907 22.8394C113.296 23.0214 112.711 23.1124 112.152 23.1124C111.424 23.1124 110.734 22.9954 110.084 22.7613C109.447 22.5273 108.888 22.1958 108.407 21.7667C107.939 21.3247 107.569 20.7981 107.295 20.187C107.022 19.5759 106.886 18.8934 106.886 18.1393C106.886 17.3852 107.022 16.7026 107.295 16.0915C107.569 15.4804 107.939 14.9604 108.407 14.5313C108.888 14.0893 109.447 13.7512 110.084 13.5172C110.734 13.2832 111.424 13.1661 112.152 13.1661C112.711 13.1661 113.296 13.2637 113.907 13.4587C114.531 13.6407 115.07 13.9657 115.526 14.4338L113.595 16.4621Z" fill="#014392"/>
<path d="M116.041 18.1393C116.041 17.3852 116.177 16.7026 116.45 16.0915C116.723 15.4804 117.094 14.9604 117.562 14.5313C118.043 14.0893 118.602 13.7512 119.239 13.5172C119.889 13.2832 120.578 13.1661 121.306 13.1661C122.035 13.1661 122.717 13.2832 123.354 13.5172C124.004 13.7512 124.563 14.0893 125.031 14.5313C125.512 14.9604 125.89 15.4804 126.163 16.0915C126.436 16.7026 126.572 17.3852 126.572 18.1393C126.572 18.8934 126.436 19.5759 126.163 20.187C125.89 20.7981 125.512 21.3247 125.031 21.7667C124.563 22.1958 124.004 22.5273 123.354 22.7613C122.717 22.9954 122.035 23.1124 121.306 23.1124C120.578 23.1124 119.889 22.9954 119.239 22.7613C118.602 22.5273 118.043 22.1958 117.562 21.7667C117.094 21.3247 116.723 20.7981 116.45 20.187C116.177 19.5759 116.041 18.8934 116.041 18.1393ZM118.966 18.1393C118.966 18.8544 119.168 19.4329 119.571 19.875C119.987 20.317 120.565 20.5381 121.306 20.5381C122.048 20.5381 122.62 20.317 123.023 19.875C123.439 19.4329 123.647 18.8544 123.647 18.1393C123.647 17.4242 123.439 16.8456 123.023 16.4035C122.62 15.9615 122.048 15.7405 121.306 15.7405C120.565 15.7405 119.987 15.9615 119.571 16.4035C119.168 16.8456 118.966 17.4242 118.966 18.1393Z" fill="#014392"/>
<path d="M128.1 13.4002H130.909V14.6873H130.948C131.039 14.5053 131.169 14.3233 131.338 14.1413C131.507 13.9592 131.708 13.7967 131.942 13.6537C132.176 13.5107 132.443 13.3937 132.742 13.3027C133.041 13.2116 133.366 13.1661 133.717 13.1661C134.38 13.1661 134.965 13.3027 135.472 13.5757C135.992 13.8487 136.382 14.2778 136.642 14.8629C136.98 14.2518 137.39 13.8162 137.871 13.5562C138.352 13.2962 138.944 13.1661 139.646 13.1661C140.283 13.1661 140.816 13.2767 141.245 13.4977C141.687 13.7057 142.031 13.9982 142.278 14.3753C142.538 14.7393 142.72 15.1749 142.824 15.682C142.942 16.176 143 16.7091 143 17.2812V22.8784H140.075V17.3592C140.075 16.9171 139.977 16.5401 139.782 16.228C139.6 15.903 139.269 15.7405 138.787 15.7405C138.449 15.7405 138.163 15.799 137.929 15.916C137.708 16.02 137.526 16.1695 137.383 16.3645C137.253 16.5596 137.156 16.7871 137.091 17.0471C137.039 17.3072 137.013 17.5802 137.013 17.8662V22.8784H134.087V17.8662C134.087 17.6972 134.081 17.4892 134.068 17.2422C134.055 16.9951 134.009 16.7611 133.931 16.5401C133.853 16.319 133.723 16.1305 133.541 15.9745C133.372 15.8185 133.119 15.7405 132.781 15.7405C132.404 15.7405 132.098 15.812 131.864 15.955C131.63 16.085 131.448 16.267 131.318 16.5011C131.201 16.7221 131.123 16.9756 131.084 17.2617C131.045 17.5477 131.026 17.8467 131.026 18.1588V22.8784H128.1V13.4002Z" fill="#014392"/>
</svg>
